<svg id="icon-ui-svg" xmlns="http://www.w3.org/2000/svg" viewBox="0 0 48 48"><path d="M43.919 6.07v14.507l-9.37 4.435L30 23.592v-.838l4.49 1.401 8.63-4.085V6.66l-8.571-2.649-8.63 4.06v3.868l-.8-.248V7.562l9.37-4.406zM22 35.04l-6.03 2.854L4.9 34.439V17.152l11.13-5.235 11.07 3.422v12.407l.8-.376V14.75l-11.93-3.688L4.1 16.645v18.383l11.93 3.722L22 35.925zm15.9-4.65v10.628l-6.87 3.252-6.93-2.163V31.478l6.87-3.231zm-.8.589l-6.07-1.876-6.13 2.883v9.533l6.07 1.894 6.13-2.902z" id="icon-ui-svg--base"/></svg>