<svg id="icon-ui-svg" xmlns="http://www.w3.org/2000/svg" viewBox="0 0 48 48"><path d="M27.913 17.988V15.31c0-1.45.203-1.9 1.476-1.9a2.484 2.484 0 0 0 1.933-.81 2.654 2.654 0 0 0 .627-1.76 2.605 2.605 0 0 0-2.561-2.74H17.575a2.605 2.605 0 0 0-2.561 2.74 2.654 2.654 0 0 0 .627 1.76 2.484 2.484 0 0 0 1.933.81c1.358 0 1.576.549 1.576 1.864v2.705l-6.02 10.225-.084.016.018.098-7.043 11.965A2.4 2.4 0 0 0 8.089 43.9h30.886a2.399 2.399 0 0 0 2.067-3.618zm-7.962.208v-2.922c0-1.384-.288-2.665-2.377-2.665a1.688 1.688 0 0 1-1.333-.537 1.861 1.861 0 0 1-.428-1.233 1.803 1.803 0 0 1 1.762-1.94h11.813a1.803 1.803 0 0 1 1.761 1.94 1.861 1.861 0 0 1-.427 1.233 1.688 1.688 0 0 1-1.333.537c-2.1 0-2.277 1.334-2.277 2.7V18.1H24.2v.8h3.321l1.296 2.2H26.2v.8h3.003v-.144l1.38 2.344H28.2v.8h2.855l2.214 3.76a11.045 11.045 0 0 1-5.928 1.565 23.994 23.994 0 0 1-5.044-.975c-2.714-.7-5.758-1.471-8.146-1.2zm20.412 24.098a1.604 1.604 0 0 1-1.388.806H8.089a1.6 1.6 0 0 1-1.379-2.412l6.926-11.764.165-.03c2.272-.421 5.473.403 8.297 1.13a24.352 24.352 0 0 0 5.243 1 11.886 11.886 0 0 0 6.335-1.673l6.677 11.337a1.602 1.602 0 0 1 .01 1.606zM17.5 33.1a2.4 2.4 0 1 0 2.4 2.4 2.403 2.403 0 0 0-2.4-2.4zm0 4a1.6 1.6 0 1 1 1.6-1.6 1.602 1.602 0 0 1-1.6 1.6zM39 10.9A2.9 2.9 0 1 0 36.1 8a2.904 2.904 0 0 0 2.9 2.9zm0-5A2.1 2.1 0 1 1 36.9 8 2.102 2.102 0 0 1 39 5.9zm-8 0A1.9 1.9 0 1 0 29.1 4 1.902 1.902 0 0 0 31 5.9zm0-3A1.1 1.1 0 1 1 29.9 4 1.101 1.101 0 0 1 31 2.9z" id="icon-ui-svg--base"/></svg>