<svg xmlns="http://www.w3.org/2000/svg" viewBox="0 0 216.356 211.452">
  <g fill="#464646" fill-opacity="1">
    <path d="M105.358,4.267c.2.173.39.375.578.563a5.758,5.758,0,0,0,.524.524c3.33,2.977,6.877,4.612,9.966,4.612h0c3.06,0,5.647-1.515,7.687-4.5A18.761,18.761,0,0,0,126.64,0h-.105a19.053,19.053,0,0,1-2.5,5.414c-2.032,2.947-4.59,4.455-7.612,4.455h0c-3.066,0-6.583-1.635-9.906-4.582-.172-.158-.337-.337-.517-.525s-.382-.39-.577-.577c-1.493-1.3-3.1-2.5-4.65-3.667-.232-.172-.457-.338-.689-.518h-.165c.262.2.532.4.8.6C102.276,1.762,103.873,2.962,105.358,4.267Z"/>
    <path d="M6.568,13.933c2.16-2.009,4.395-4.094,5.827-7.071A22.42,22.42,0,0,0,14.157,0h-.1a22.27,22.27,0,0,1-1.748,6.824c-1.417,2.947-3.644,5.024-5.8,7.034C3.989,16.2,1.394,18.605.112,22.414A2.781,2.781,0,0,0,0,22.759V23.1c.06-.225.135-.443.2-.645C1.484,18.665,4.072,16.258,6.568,13.933Z"/>
    <path d="M115.692,5.332h0a4.96,4.96,0,0,0,3.029-1.087A7.11,7.11,0,0,0,120.5,2.19c.187-.3.389-.607.621-.922A10.852,10.852,0,0,0,121.578,0h-.105c-.128.413-.27.818-.435,1.208a10.391,10.391,0,0,0-.622.93,7.016,7.016,0,0,1-1.747,2.024,4.878,4.878,0,0,1-2.977,1.073h0c-2.782,0-5.452-2.475-7.807-4.65L107.256,0h-.151c.233.218.466.428.7.653C110.18,2.85,112.872,5.332,115.692,5.332Z"/>
    <path d="M1.822,31.488a38.629,38.629,0,0,1,1.687-6.779c1.215-2.954,3.742-5.437,6.412-8.069A52.342,52.342,0,0,0,14.7,11.526a28.419,28.419,0,0,0,4-6.606c.593-1.38,1.1-2.97,1.6-4.507.044-.135.1-.278.134-.413h-.1c-.038.127-.083.255-.127.383-.488,1.537-1,3.127-1.591,4.5a28.28,28.28,0,0,1-3.989,6.584,54.658,54.658,0,0,1-4.762,5.1C7.169,19.212,4.634,21.7,3.412,24.671a38.165,38.165,0,0,0-1.687,6.8,43.819,43.819,0,0,1-1.71,6.988A.118.118,0,0,0,0,38.507v.262a2.83,2.83,0,0,1,.112-.27A42.565,42.565,0,0,0,1.822,31.488Z"/>
    <path d="M10.011,63.823c3.487,1.394,7.821,3.119,9.479,6.651a11.768,11.768,0,0,1-1.283,5.3,16.04,16.04,0,0,0-1.515,9.486c.5,3.269,2.415,5.369,4.642,7.8.922,1,1.86,2.039,2.76,3.216a42.778,42.778,0,0,1,5.2,9.584c1.252,2.992,2.234,5.354,5.519,6.142a56.7,56.7,0,0,0,6.592,1,27.266,27.266,0,0,0,2.879.172,13.4,13.4,0,0,0,3.742-.464c2.227-.661,3.645-2.475,5.429-4.77.533-.682,1.08-1.38,1.7-2.122.42-.51.974-1.065,1.567-1.665A12.4,12.4,0,0,0,59.57,100.6a2.91,2.91,0,0,0,.06-1.169,5.478,5.478,0,0,1-.022-1.073l.008-.022-.016-.016a27.993,27.993,0,0,0-4.042-4.064c-2.376-2.084-4.634-4.049-5.481-7.281a8.925,8.925,0,0,1,.5-5.572,17.185,17.185,0,0,1,5.466-6.681c1.215-.967,2.505-1.972,3.87-3.045C66.17,66.8,73.271,61.266,77.148,56.444l.007-.03a4.644,4.644,0,0,0-.09-2.01A15.114,15.114,0,0,0,72.716,47.8a17.139,17.139,0,0,0-6.569-4.147c-.158-.045-.465-.128-.8-.2a21.683,21.683,0,0,0-7.926.21,23.7,23.7,0,0,1-6.48.39c-4.491-.593-7.723-3.6-8.863-8.249-1.5-6.1,2.647-9.936,6.659-13.648,2.955-2.744,6.022-5.571,6.824-9.3.765-3.517-.233-7.312-.892-9.824C54.411,2.017,54.089,1,53.744,0h-.1c.352,1.013.667,2.033.937,3.06.653,2.5,1.65,6.277.892,9.77-.794,3.705-3.847,6.525-6.8,9.254-4.026,3.727-8.2,7.581-6.681,13.746a10.381,10.381,0,0,0,8.954,8.316,23.85,23.85,0,0,0,6.5-.382,21.668,21.668,0,0,1,7.89-.211c.322.068.637.151.794.2,3.885,1.065,9.764,6.315,10.836,10.672a4.453,4.453,0,0,1,.105,1.964C73.188,61.2,66.1,66.732,59.848,71.606c-1.373,1.065-2.663,2.07-3.877,3.037a17.2,17.2,0,0,0-5.489,6.734A9.037,9.037,0,0,0,49.98,87c.862,3.262,3.119,5.25,5.511,7.342a28.338,28.338,0,0,1,4.02,4.027,6.237,6.237,0,0,0,.014,1.072,2.473,2.473,0,0,1-.052,1.125,12.291,12.291,0,0,1-2.827,3.517c-.585.592-1.148,1.154-1.568,1.664-.622.735-1.177,1.44-1.709,2.13-1.778,2.279-3.18,4.079-5.377,4.732a17.088,17.088,0,0,1-6.576.293,59.4,59.4,0,0,1-6.584-1c-3.232-.765-4.214-3.112-5.451-6.081a43.092,43.092,0,0,0-5.205-9.614c-.9-1.177-1.845-2.212-2.76-3.217-2.219-2.415-4.131-4.507-4.619-7.746a15.97,15.97,0,0,1,1.5-9.434,11.937,11.937,0,0,0,1.3-5.354l-.007-.022c-1.68-3.562-6.037-5.309-9.539-6.7a18.611,18.611,0,0,0-3.007-1A41.472,41.472,0,0,0,0,61.82v.106a40.464,40.464,0,0,1,7.018.907A18.327,18.327,0,0,1,10.011,63.823Z"/>
    <path d="M60.875,2.917c.27,1.035.585,2.07.892,3.082a42.677,42.677,0,0,1,1.53,6.217,12.406,12.406,0,0,1,.008,3.7c-.518,2.909-2.474,5.174-4.364,7.371-2.168,2.512-4.41,5.122-4.582,8.743.233,3.226,3.869,3.7,7.716,4.185.7.1,1.44.188,2.145.3a50.059,50.059,0,0,1,9.388,2.594c1.163.443,2.28.99,3.367,1.523a18.861,18.861,0,0,0,6.314,2.257,8.666,8.666,0,0,0,.893.045,11.863,11.863,0,0,0,4.056-.847c1.17-.413,2.175-.855,3.149-1.3A20.529,20.529,0,0,1,98.5,38.724a14.965,14.965,0,0,1,1.643-.082,28.289,28.289,0,0,1,8.758,1.709,22.591,22.591,0,0,0,6.779,1.418A9.806,9.806,0,0,0,117,41.687a10.706,10.706,0,0,0,8.1-5.468,35.2,35.2,0,0,0,3.622-9.973,38.842,38.842,0,0,0,.831-4.319,3.615,3.615,0,0,0-.629-2.917c-1.042-1.208-3.135-1.283-5.557-1.357-1.1-.038-2.234-.076-3.367-.225-4.769-.615-8.766-1.23-13.19-3.083-3.645-1.515-7.289-3.411-9.711-4.723C93.038,7.394,88.433,4.642,85.186,0h-.12c3.262,4.687,7.889,7.477,11.991,9.711a107.288,107.288,0,0,0,9.711,4.732c4.432,1.844,8.444,2.467,13.221,3.089,1.131.143,2.272.181,3.374.225,2.4.075,4.476.143,5.5,1.32a3.561,3.561,0,0,1,.6,2.842,41.037,41.037,0,0,1-.833,4.305c-1.68,6.936-4.094,14.42-11.638,15.365a10.923,10.923,0,0,1-1.313.075,22.789,22.789,0,0,1-6.756-1.41,28.327,28.327,0,0,0-8.781-1.71c-.548,0-1.1.023-1.649.075A20.478,20.478,0,0,0,91.351,40.7c-.976.427-1.98.877-3.143,1.29a11.967,11.967,0,0,1-4.026.832,8.375,8.375,0,0,1-.878-.045,18.838,18.838,0,0,1-6.284-2.235,35.1,35.1,0,0,0-3.374-1.529,49.73,49.73,0,0,0-9.4-2.6c-.712-.112-1.447-.209-2.152-.292-3.8-.495-7.4-.96-7.634-4.1.172-3.57,2.408-6.165,4.559-8.677,1.905-2.2,3.863-4.484,4.395-7.409A13.188,13.188,0,0,0,63.4,12.2a43.505,43.505,0,0,0-1.545-6.224c-.3-1.013-.607-2.062-.892-3.09-.18-.667-.367-1.35-.562-2.009C60.32.593,60.245.293,60.156,0H60.05c.09.308.18.607.255.908C60.5,1.567,60.688,2.242,60.875,2.917Z"/>
    <path d="M6.988,6.667A11.441,11.441,0,0,0,8.938,0h-.1A11.427,11.427,0,0,1,6.906,6.615a15.616,15.616,0,0,1-5.129,4.446c-.592.383-1.192.765-1.777,1.177v.12c.6-.42,1.222-.817,1.83-1.207A15.807,15.807,0,0,0,6.988,6.667Z"/>
    <path d="M67.444,8.991A16.373,16.373,0,0,1,68.9,13.213c.592,4-1.477,6.607-3.472,9.134-1.372,1.717-2.654,3.337-3.052,5.331a3.955,3.955,0,0,0-.052,1.208c.014.21.029.435.029.742v.015a6.216,6.216,0,0,0,3.225,3c4.305,2.13,11.316,3.134,16.43,3.869a17.159,17.159,0,0,0,2.332.165h0a31.892,31.892,0,0,0,5.781-.69,36.609,36.609,0,0,1,6.735-.772c.659,0,1.334.03,1.986.082.135.015.511.038.991.068.705.037,1.589.083,2.211.135a34.56,34.56,0,0,1,5.325.884,29.439,29.439,0,0,0,7.087.923c.307,0,.629-.007.952-.015,2.354-.368,4.514-2.85,5.376-6.179.712-2.752.548-6.412-2.047-8.436-3.052-2.377-11.946-4.462-16.723-4.845-1.019-.089-1.866-.1-2.684-.1-.915-.008-1.852-.015-3.082-.12-3.292-.3-6.014-1.6-9.111-4.341A38.365,38.365,0,0,1,78.258,2.025,12.836,12.836,0,0,1,77.358,0h-.113a13.143,13.143,0,0,0,.93,2.07,38.207,38.207,0,0,0,8.9,11.278c3.1,2.76,5.849,4.064,9.164,4.365,1.229.112,2.174.119,3.089.119.855.008,1.657.016,2.677.1,4.762.39,13.626,2.459,16.677,4.829,2.55,1.987,2.7,5.609,2,8.332-.848,3.284-2.985,5.736-5.3,6.1-.314.008-.629.015-.936.015a29.71,29.71,0,0,1-7.065-.922,34.753,34.753,0,0,0-5.339-.885c-.622-.045-1.507-.105-2.212-.143-.48-.022-.855-.044-.99-.052a19.761,19.761,0,0,0-1.994-.09,36,36,0,0,0-6.749.773,31.913,31.913,0,0,1-5.767.682h0a15.675,15.675,0,0,1-2.317-.158c-5.107-.735-12.111-1.732-16.4-3.861a6.068,6.068,0,0,1-3.164-2.94c-.008-.3-.023-.525-.03-.735a3.376,3.376,0,0,1,.044-1.184c.4-1.958,1.673-3.577,3.03-5.287C67.519,19.872,69.6,17.247,69,13.2a16.348,16.348,0,0,0-1.462-4.244c-.239-.533-.5-1.087-.712-1.642A46.222,46.222,0,0,1,64.527,0h-.1a47.415,47.415,0,0,0,2.3,7.357C66.949,7.9,67.2,8.459,67.444,8.991Z"/>
    <path d="M10.393,49.432c1.388-1.544,2.617-3.194,3.922-4.933a47.586,47.586,0,0,1,6.967-7.964c.2-.181.389-.376.57-.571.165-.179.344-.359.524-.524a41.545,41.545,0,0,1,5.85-4.087c1.379-.855,2.812-1.732,4.154-2.722,1.064-.788,2.137-1.612,3.164-2.407,1.568-1.215,3.187-2.46,4.822-3.585.772-.532,1.575-1.042,2.429-1.582,4.17-2.662,8.894-5.676,9.614-11.128A18.593,18.593,0,0,0,50.422,0h-.1a18.65,18.65,0,0,1,1.995,9.921c-.721,5.407-5.422,8.407-9.577,11.046-.846.54-1.649,1.057-2.421,1.583-1.643,1.131-3.262,2.384-4.823,3.591-1.034.8-2.1,1.62-3.179,2.407-1.334.982-2.759,1.868-4.139,2.715a42.637,42.637,0,0,0-5.857,4.1c-.2.165-.367.36-.54.533a6.531,6.531,0,0,1-.562.554,47.363,47.363,0,0,0-6.974,7.979c-1.3,1.747-2.542,3.389-3.922,4.927A19.14,19.14,0,0,1,0,55.312v.1A19.365,19.365,0,0,0,10.393,49.432Z"/>
    <path d="M4.244,45.548c1.342-1.957,1.35-5.512,1.207-8.391A25.883,25.883,0,0,1,6.9,26.7c1.177-2.82,3.966-5.332,6.666-7.747.413-.374.817-.742,1.215-1.109A41.458,41.458,0,0,0,25.233,3.367c.2-.434.375-.9.548-1.35A16.871,16.871,0,0,1,26.493.33c.053-.112.112-.225.165-.33h-.112c-.045.1-.1.188-.15.278a18.017,18.017,0,0,0-.705,1.7c-.173.45-.345.907-.555,1.343A41.236,41.236,0,0,1,14.713,17.78c-.4.367-.811.727-1.215,1.095-2.707,2.43-5.512,4.942-6.689,7.791A25.967,25.967,0,0,0,5.354,37.157c.142,2.872.127,6.4-1.192,8.339A10.857,10.857,0,0,1,0,48.72v.112A10.991,10.991,0,0,0,4.244,45.548Z"/>
    <path d="M1.492,2.752A3.978,3.978,0,0,0,2.422,0H2.31a3.958,3.958,0,0,1-.886,2.685A1.983,1.983,0,0,1,0,3.367v.1H0A2.069,2.069,0,0,0,1.492,2.752Z"/>
    <path d="M32.3,1.59a26.815,26.815,0,0,0-3.472,6.194c-.157.338-.308.667-.457,1a60.325,60.325,0,0,1-5.287,9.8,15.592,15.592,0,0,1-4.754,3.645c-2.677,1.582-5.444,3.224-6.524,6.239a6.231,6.231,0,0,0-.015,3.772A1.974,1.974,0,0,0,13.715,33.5h0a7.3,7.3,0,0,0,3.959-1.762,26.69,26.69,0,0,0,3.9-4.508c.652-.862,1.32-1.769,2.01-2.594a12.707,12.707,0,0,1,2.459-2.272,49.532,49.532,0,0,1,8.346-3.48c4.327-1.514,8.789-3.081,11.571-5.631A8.033,8.033,0,0,0,48.4,7.507,9.364,9.364,0,0,0,45.967.885,8.222,8.222,0,0,0,45.023,0h-.165a8.866,8.866,0,0,1,1.034.96,9.209,9.209,0,0,1,2.4,6.539A7.927,7.927,0,0,1,45.9,13.176c-2.774,2.527-7.237,4.094-11.541,5.609A49.135,49.135,0,0,0,26,22.272a12.324,12.324,0,0,0-2.482,2.3c-.7.817-1.372,1.725-2.025,2.6a26.89,26.89,0,0,1-3.877,4.477,7.213,7.213,0,0,1-3.9,1.747,1.876,1.876,0,0,1-1.837-1.192,6.178,6.178,0,0,1,.023-3.7c1.065-2.977,3.817-4.605,6.478-6.179a15.794,15.794,0,0,0,4.792-3.682,61.672,61.672,0,0,0,5.287-9.809c.15-.337.3-.675.457-1.012A26.758,26.758,0,0,1,32.38,1.658,9.226,9.226,0,0,1,34.217,0h-.172A9.574,9.574,0,0,0,32.3,1.59Z"/>
    <path d="M71.951,27.244l.008.015a2.065,2.065,0,0,1,.382.7l.022.053.016.03a4.494,4.494,0,0,0,3.089,1.065h0a5.817,5.817,0,0,0,4.439-1.875,2.566,2.566,0,0,0,.5-2.249c-.382-1.485-1.8-1.973-3.345-2.37l-.007-.008-.007.008C74.418,23,71.7,24.6,71.951,27.228Zm5.092-4.529c1.514.4,2.887.862,3.262,2.294a2.462,2.462,0,0,1-.48,2.167,5.711,5.711,0,0,1-4.357,1.838h0a4.378,4.378,0,0,1-3.015-1.043l-.014-.038a2.5,2.5,0,0,0-.391-.735C71.794,24.282,75.2,22.992,77.043,22.715Z"/>
    <path d="M99.119,28.968l.038.068.014.007a13.607,13.607,0,0,0,6.637,1.687h0c1.552,0,4.26-.307,4.965-2.4v-.008a2.585,2.585,0,0,0-.8-1.927,7.67,7.67,0,0,0-5.294-1.7c-2.842,0-5.909,1.095-5.954,3.525v.015l.022.015A2.059,2.059,0,0,1,99.119,28.968Zm5.564-4.169a7.657,7.657,0,0,1,5.227,1.664,2.557,2.557,0,0,1,.765,1.846c-.69,2.024-3.353,2.324-4.867,2.324h0a13.6,13.6,0,0,1-6.577-1.665l-.014-.045a2.366,2.366,0,0,0-.383-.72C98.887,25.864,101.9,24.8,104.683,24.8Z"/>
    <path d="M27.7,76.855a27.186,27.186,0,0,0-.922,8.752c1.9,6.576,4.139,11.54,6.831,15.192a13.787,13.787,0,0,0,2.378,2.595,8.719,8.719,0,0,0,5.294,1.777h0a6,6,0,0,0,4.641-1.882c1.185-1.342,1.62-3.277,1.3-5.744A22.482,22.482,0,0,0,46.035,93.3a21.68,21.68,0,0,1-1.185-4.228c-.727-5.363,1.568-10.919,6.112-14.856A61.586,61.586,0,0,1,56.8,69.867a57.835,57.835,0,0,0,6.254-4.755c3.09-2.8,6.583-5.976,7.161-10.768v-.022c-.367-2.265-1.072-4.6-3.652-6.262a8.926,8.926,0,0,0-5.091-1.4,30.816,30.816,0,0,0-5.355.66,35.477,35.477,0,0,1-6.268.735c-.533,0-1.058-.022-1.56-.06a27.66,27.66,0,0,1-3.682-.749,24.683,24.683,0,0,0-5.227-.908,4.982,4.982,0,0,0-.862.068c-2.025.307-4.17,2.061-5.812,3.554-2.737,2.482-5.316,5.069-5.744,7.2A12.194,12.194,0,0,0,26.95,60.3a26.729,26.729,0,0,0,.773,3.915,22.2,22.2,0,0,1,.817,7.911A29.4,29.4,0,0,1,27.7,76.855Zm.12-12.665a26.907,26.907,0,0,1-.765-3.9,12.3,12.3,0,0,1,0-3.1c.42-2.107,2.993-4.679,5.715-7.153,1.634-1.478,3.764-3.218,5.759-3.533a5.9,5.9,0,0,1,.847-.052,24.051,24.051,0,0,1,5.2.907,29.215,29.215,0,0,0,3.69.743c.509.045,1.035.067,1.575.067a34.28,34.28,0,0,0,6.283-.749,31.488,31.488,0,0,1,5.34-.653,8.912,8.912,0,0,1,5.046,1.38c2.542,1.649,3.232,3.944,3.6,6.2-.577,4.747-4.049,7.9-7.123,10.7a59.115,59.115,0,0,1-6.247,4.732,62.348,62.348,0,0,0-5.849,4.372,16.958,16.958,0,0,0-6.149,14.937,22.27,22.27,0,0,0,1.193,4.244,21.247,21.247,0,0,1,1.177,4.23c.33,2.437-.106,4.342-1.275,5.669a5.9,5.9,0,0,1-4.559,1.844h0a8.7,8.7,0,0,1-5.234-1.754,13.8,13.8,0,0,1-2.355-2.58C31,97.1,28.772,92.145,26.876,85.585a26.594,26.594,0,0,1,.93-8.7,29.05,29.05,0,0,0,.832-4.754A22.2,22.2,0,0,0,27.82,64.19Z"/>
    <path d="M33.969,76.6c.106.443.173.893.255,1.388.271,1.725.593,3.7,2.362,4.626l.016.008h.014c2.153-.15,3.51-2.069,4.95-4.094.517-.72,1.042-1.47,1.612-2.123a49.246,49.246,0,0,1,10.206-8.45,55.924,55.924,0,0,0,6.764-5.122,4.6,4.6,0,0,0,1.515-1.425,6.339,6.339,0,0,1,1.087-1.169c1.859-2.326,2.474-5.048,1.567-6.922-.57-1.185-1.994-2.6-5.549-2.6-.48,0-.982.029-1.5.075-1.14.113-2.451.352-3.824.607-1.53.277-3.262.593-5.009.78-.368.038-.713.068-1.058.112-4.664.466-7.476.765-10.281,4.065a15.37,15.37,0,0,0-3.359,9.194,63.606,63.606,0,0,0,.09,7.663C33.894,74.426,33.955,75.573,33.969,76.6Zm-.127-11.045a15.243,15.243,0,0,1,3.329-9.126c2.775-3.292,5.415-3.554,10.214-4.05.345-.03.69-.067,1.057-.1,1.755-.188,3.487-.5,5.017-.78,1.372-.248,2.677-.5,3.817-.6a14.764,14.764,0,0,1,1.492-.083c3.5,0,4.9,1.388,5.467,2.55.877,1.845.277,4.521-1.552,6.8a6.8,6.8,0,0,0-1.1,1.177,4.265,4.265,0,0,1-1.477,1.4l-.015.007a54.22,54.22,0,0,1-6.764,5.122A49.39,49.39,0,0,0,43.1,76.346a25.8,25.8,0,0,0-1.612,2.122c-1.425,2-2.768,3.9-4.867,4.049-1.725-.907-2.017-2.759-2.3-4.544-.082-.5-.15-.953-.247-1.387-.016-1.02-.083-2.16-.143-3.375A61.9,61.9,0,0,1,33.842,65.555Z"/>
    <path d="M98.819,64.64c.765,7.124,1.485,13.858,7.041,18.672,3.735,3.232,9.772,6.674,15.553,6.674h0a10.794,10.794,0,0,0,8.609-3.885c1.889-2.242,2.864-4.859,3.982-7.9.12-.337.247-.675.375-1.027.225-.584.442-1.162.659-1.732a41.278,41.278,0,0,0,2.715-8.946c.652-5.662-1.4-7.942-3.944-10.146-3.96-3.427-9.112-3.682-14.571-3.959-1.29-.068-2.819-.2-4.431-.353-2.542-.232-5.414-.487-7.822-.487-2.594,0-4.3.292-5.219.907-3.869,2.565-3.405,8.8-3.037,11.346Zm3-12.088c.908-.607,2.595-.9,5.167-.9,2.4,0,5.28.263,7.814.495,1.612.142,3.142.285,4.432.345,5.444.27,10.581.532,14.51,3.937,2.527,2.182,4.559,4.447,3.914,10.063-.292,2.55-1.47,5.639-2.707,8.917-.217.577-.442,1.154-.652,1.739-.135.338-.262.683-.383,1.027-1.117,3.023-2.084,5.632-3.973,7.867a10.664,10.664,0,0,1-8.527,3.854c-5.744,0-11.773-3.442-15.485-6.666-5.534-4.777-6.247-11.5-7-18.6l-.1-.839C98.452,61.258,98,55.079,101.818,52.552Z"/>
    <path d="M104.128,65.81c.667,6.149,1.238,11.458,6.217,15.395a18.522,18.522,0,0,0,10.618,3.982h0a8.224,8.224,0,0,0,5.159-1.59c3.884-3.007,5.572-9.261,5.842-13.7.308-5.13-1.575-9.636-5.031-12.036-3.173-2.212-7.207-2.437-11.489-2.67-.937-.044-1.867-.1-2.8-.1-2.685,0-6,.338-7.694,2.955-.975,1.987-.915,4.319-.847,6.569C104.114,65.022,104.12,65.412,104.128,65.81Zm.915-7.716c1.665-2.565,4.942-2.9,7.6-2.9.93,0,1.852.046,2.8.1,4.252.233,8.279.443,11.436,2.64,3.419,2.385,5.287,6.861,4.979,11.953-.262,4.425-1.942,10.648-5.8,13.633a8.116,8.116,0,0,1-5.092,1.575h0A18.483,18.483,0,0,1,110.4,81.122c-4.934-3.914-5.481-8.953-6.164-15.319-.007-.391-.015-.781-.037-1.185C104.143,62.376,104.084,60.058,105.043,58.094Z"/>
    <path d="M42.96,64.827l.023.016a2.335,2.335,0,0,1,.405.374,2,2,0,0,0,.51.436l.008.007h.022a20.152,20.152,0,0,0,8.436-3.847,5.482,5.482,0,0,0,2.25-3.022l.007-.022-.015-.023a4.2,4.2,0,0,0-.464-.517c-.128-.121-.248-.233-.36-.36l-.008-.023h-.023a12.711,12.711,0,0,0-1.334-.067c-2.475,0-5.85.749-7.874,2.842a5.55,5.55,0,0,0-1.583,4.184Zm1.658-4.139c1.995-2.077,5.339-2.811,7.8-2.811a12.441,12.441,0,0,1,1.3.066c.112.128.231.248.344.36a2.751,2.751,0,0,1,.443.488,5.369,5.369,0,0,1-2.2,2.939,20.019,20.019,0,0,1-8.376,3.832,1.929,1.929,0,0,1-.458-.4,3.179,3.179,0,0,0-.4-.383A5.42,5.42,0,0,1,44.618,60.688Z"/>
    <path d="M114.537,78.408a9.83,9.83,0,0,0,5.249,1.665h0a6.6,6.6,0,0,0,5.534-2.85c3.149-4.341,1.725-12.553-2.79-15.965a10.221,10.221,0,0,0-6.306-2.047,12.523,12.523,0,0,0-2.153.187c-3.156.533-4.8,3.03-4.746,7.207C109.37,69.777,110.112,75.536,114.537,78.408Zm-.45-18.912a13.116,13.116,0,0,1,2.137-.18,10.217,10.217,0,0,1,6.254,2.018,12.042,12.042,0,0,1,4.214,7.611,11.112,11.112,0,0,1-1.462,8.226,6.489,6.489,0,0,1-5.444,2.8h0a9.763,9.763,0,0,1-5.2-1.643c-4.379-2.842-5.114-8.563-5.159-11.72C109.37,62.481,110.99,60.021,114.087,59.5Z"/>
    <path d="M12.62,106.4a14.692,14.692,0,0,0,1.282,2.062l.023.023c.652.847,1.762,2.257,3.307,2.024a4.552,4.552,0,0,0,3.465-5.136c-.315-2.325-1.875-4.027-4.912-5.355-.2-.082-.39-.172-.593-.255-1.462-.614-2.849-1.2-3.486-2.594a58.6,58.6,0,0,1-.93-10.431,85.721,85.721,0,0,0-.675-9.546c-.847-5.571-3.7-8.886-8.714-10.153A12,12,0,0,0,0,66.755v.105a11.882,11.882,0,0,1,1.365.277c4.972,1.245,7.8,4.544,8.638,10.071a89.059,89.059,0,0,1,.675,9.538,58.416,58.416,0,0,0,.93,10.461c.66,1.44,2.063,2.025,3.547,2.648.2.09.4.164.593.255,3,1.3,4.536,2.984,4.843,5.279a4.437,4.437,0,0,1-3.374,5.017c-1.485.225-2.572-1.155-3.217-1.973l-.022-.022a15.609,15.609,0,0,1-1.275-2.055c-1.3-2.347-2.64-4.776-6.479-4.139A15.554,15.554,0,0,0,0,105.149v.127a15.525,15.525,0,0,1,6.239-2.962C10.011,101.692,11.338,104.091,12.62,106.4Z"/>
    <path d="M2.489,93.1A13.979,13.979,0,0,0,5.744,83.17c-.15-3.728-1.544-7.132-3.734-9.119A5.9,5.9,0,0,0,0,73.107v.1a6.092,6.092,0,0,1,1.942.916,13.067,13.067,0,0,1,3.7,9.051,13.932,13.932,0,0,1-3.224,9.868A14.474,14.474,0,0,1,0,95.116v.119A13.371,13.371,0,0,0,2.489,93.1Z"/>
    <path d="M92.588,93.75a10.282,10.282,0,0,0-.66-2.107c-2.115-5.264-7.079-10.783-10.686-13.9-2.475-2.138-4.529-3.39-6.1-3.7a5.039,5.039,0,0,0-1.088-.112c-4.3,0-9.59,4.379-9.921,8.218a2.988,2.988,0,0,0,.113.563,2.875,2.875,0,0,1,.106.877V83.6l.006.007a78.505,78.505,0,0,0,5.175,10.109,20.1,20.1,0,0,0,2.85,3.892,17.65,17.65,0,0,0,11.57,4.656h0a9.08,9.08,0,0,0,5.594-1.671C91.988,98.737,93.015,96.435,92.588,93.75Zm-8.639,8.407h0a17.525,17.525,0,0,1-11.5-4.627,20.151,20.151,0,0,1-2.842-3.862,79.058,79.058,0,0,1-5.159-10.086,2.683,2.683,0,0,0-.12-.9,4.808,4.808,0,0,1-.112-.54c.337-3.794,5.571-8.113,9.83-8.113a5.526,5.526,0,0,1,1.073.1c1.56.323,3.6,1.56,6.059,3.689,3.592,3.12,8.541,8.617,10.649,13.866a10.56,10.56,0,0,1,.667,2.085c.412,2.646-.608,4.919-3.023,6.741A8.96,8.96,0,0,1,83.949,102.157Z"/>
    <path d="M83.177,85.322A14.521,14.521,0,0,0,76.428,81.6a6.038,6.038,0,0,0-1.08-.1,3.947,3.947,0,0,0-2.977,1.155A5.287,5.287,0,0,0,71.149,86.6c.877,3.772,1.762,6.838,4.416,9a10.9,10.9,0,0,0,6.547,2.273h0c2.759,0,4.671-1.268,5.242-3.465a6.517,6.517,0,0,0,.037-2.25A12.586,12.586,0,0,0,83.177,85.322Zm4.072,9.051c-.556,2.159-2.422,3.389-5.137,3.389h0a10.854,10.854,0,0,1-6.487-2.242c-2.624-2.144-3.5-5.189-4.379-8.939a5.232,5.232,0,0,1,1.2-3.869,3.86,3.86,0,0,1,2.9-1.11,6.812,6.812,0,0,1,1.065.09c4.154.668,10.175,5.865,10.888,10.476A6.239,6.239,0,0,1,87.249,94.373Z"/>
    <path d="M107.352,102.434l-.014-.007-.022-.008a5.981,5.981,0,0,0-.8-.052,6.216,6.216,0,0,0-1.739.262,12.182,12.182,0,0,0-7.424,6.389c-.75,1.912-.435,4.027-.135,6.074a11.555,11.555,0,0,1,.015,5.241c-.818,2.415-2.985,3.937-5.084,5.407-2.22,1.56-4.514,3.165-5.077,5.82a6.11,6.11,0,0,0,1.41,5.151,11.1,11.1,0,0,0,8.264,3.48h0a8.852,8.852,0,0,0,5.384-1.627,12.325,12.325,0,0,0,2.669-3.188l.128-.195a17.78,17.78,0,0,0,1.342-5.481,27.866,27.866,0,0,1,1.125-5.347c.368-1.057.757-1.949,1.132-2.8,1.148-2.617,2.13-4.889,1.657-10.461C109.917,107.9,109.355,104.024,107.352,102.434Zm1.081,19.077c-.376.863-.765,1.747-1.133,2.812a29.308,29.308,0,0,0-1.125,5.369,17.957,17.957,0,0,1-1.334,5.445l-.112.179a12.209,12.209,0,0,1-2.656,3.172,8.7,8.7,0,0,1-5.323,1.6,11.022,11.022,0,0,1-8.189-3.435,6.051,6.051,0,0,1-1.388-5.077c.556-2.609,2.738-4.132,5.032-5.743,2.123-1.485,4.3-3.023,5.122-5.46a11.533,11.533,0,0,0,0-5.286c-.308-2.04-.615-4.147.127-6.029a12.032,12.032,0,0,1,7.349-6.329,6.089,6.089,0,0,1,1.717-.255,5.5,5.5,0,0,1,.773.052c1.972,1.575,2.534,5.414,2.8,8.579C110.554,116.652,109.58,118.9,108.433,121.511Z"/>
    <path d="M15.08,122.314a2.443,2.443,0,0,0-1.627-.631,4.33,4.33,0,0,0-3.06,1.725,6.022,6.022,0,0,0-1.605,4.365,4.2,4.2,0,0,0,4.1,3.269h0a3.492,3.492,0,0,0,2.888-1.44C17.15,127.713,16.767,123.768,15.08,122.314Zm.622,7.221a3.377,3.377,0,0,1-2.812,1.4h0a4.1,4.1,0,0,1-4-3.187,5.921,5.921,0,0,1,1.589-4.282,4.2,4.2,0,0,1,2.978-1.679,2.353,2.353,0,0,1,1.567.6C16.678,123.813,17.045,127.69,15.7,129.535Z"/>
    <path d="M51.585,135.511a2.008,2.008,0,0,1-.2-.48l-.008-.014L51.366,135a2.278,2.278,0,0,0-1.319-.434,2.786,2.786,0,0,0-2,.922,2.482,2.482,0,0,0-.683,1.874l.008.016a1.845,1.845,0,0,0,1.717,1.094h0a2.877,2.877,0,0,0,2.737-2.392v-.015A1.892,1.892,0,0,0,51.585,135.511Zm-2.5,2.858h0a1.746,1.746,0,0,1-1.62-1.028,2.321,2.321,0,0,1,.653-1.792,2.707,2.707,0,0,1,1.927-.885,2.126,2.126,0,0,1,1.237.413,2.148,2.148,0,0,0,.218.48,1.929,1.929,0,0,1,.217.516A2.767,2.767,0,0,1,49.087,138.369Z"/>
    <path d="M186.99,1.853a9.492,9.492,0,0,0,7.634.329A7.523,7.523,0,0,0,197.578,0h-.12a7.161,7.161,0,0,1-2.864,2.085,9.371,9.371,0,0,1-7.559-.315A7.11,7.11,0,0,1,184.815,0h-.134A7.112,7.112,0,0,0,186.99,1.853Z"/>
    <path d="M101.091,5.969c.945.668,1.845,1.38,2.715,2.062a22.451,22.451,0,0,0,6.284,3.93,15.793,15.793,0,0,0,7.034,1.837,11.6,11.6,0,0,0,5.3-1.267c4.935-2.483,7.717-7.9,8.782-12.531H131.1c-1.065,4.59-3.816,9.982-8.72,12.441-3.668,1.845-7.792,1.65-12.253-.57a22.175,22.175,0,0,1-6.262-3.93c-.87-.675-1.77-1.379-2.722-2.054-1.02-.728-2.078-1.433-3.1-2.108A61.766,61.766,0,0,1,92.753,0h-.165a58.882,58.882,0,0,0,5.4,3.862C99.014,4.544,100.071,5.242,101.091,5.969Z"/>
    <path d="M136.531,7.852c.667,1.619,2.137,2.407,4.491,2.407a21.41,21.41,0,0,0,3.427-.368h.03a4.074,4.074,0,0,1,.7-.052,10.309,10.309,0,0,1,2.819.547c.473.142.975.285,1.455.383.39.09.773.157,1.155.239a20.679,20.679,0,0,1,4.709,1.313c.585.27,1.185.533,1.77.78,2.895,1.252,5.886,2.549,7.828,5.069.121.158.225.315.338.473A72.019,72.019,0,0,1,168.91,24.9a64.874,64.874,0,0,0,4.185,7c1.537,2.167,3.607,4.559,5.609,6.876.7.81,1.35,1.575,1.987,2.325,3.18,3.764,6.179,7.311,11.713,7.311h.008a17.8,17.8,0,0,0,4.6-.675c4.792-1.289,13.251-4.514,16.145-11.5a41.875,41.875,0,0,0,1.815-7.169c.412-2.062.839-4.2,1.38-5.976v-.338a58.411,58.411,0,0,0-1.47,6.291,42.615,42.615,0,0,1-1.815,7.155c-2.88,6.958-11.308,10.153-16.077,11.443a17.4,17.4,0,0,1-4.582.675H192.4c-5.481,0-8.473-3.532-11.63-7.281-.637-.751-1.3-1.515-2-2.318-2-2.317-4.064-4.716-5.609-6.869a67.53,67.53,0,0,1-4.169-7c-1.133-2.092-2.31-4.259-3.668-6.269-.1-.158-.225-.33-.344-.48-1.958-2.534-4.957-3.84-7.859-5.1-.593-.255-1.192-.518-1.77-.78a20.955,20.955,0,0,0-4.731-1.327c-.391-.075-.773-.151-1.155-.233-.473-.1-.968-.247-1.448-.382a10.43,10.43,0,0,0-2.849-.555,5.275,5.275,0,0,0-.712.053l-.046.007a20.972,20.972,0,0,1-3.4.36c-2.3,0-3.749-.765-4.394-2.332-.674-1.613-.449-4.35-.247-6.772.029-.367.059-.712.082-1.05h-.1c-.022.338-.045.683-.075,1.043C136.081,3.472,135.863,6.224,136.531,7.852Z"/>
    <path d="M178.006,3.075c2.978,4.034,8.264,6.434,14.136,6.434a19.7,19.7,0,0,0,4.214-.443c5.22-1.155,6.891-4.716,7.634-9.066h-.1a16.6,16.6,0,0,1-1.057,3.832,8.481,8.481,0,0,1-6.494,5.137,19.666,19.666,0,0,1-4.2.442c-5.842,0-11.091-2.392-14.053-6.4A24.648,24.648,0,0,1,177.212,0h-.106A26.15,26.15,0,0,0,178,3.068Z"/>
    <path d="M149.541,5.182a48.763,48.763,0,0,1,7.627,1.935c1.574.5,3.209,1,4.866,1.4,1.057.255,2.115.457,3.052.6a17.67,17.67,0,0,0,2.513.218h0q2.181,0,2.587-.9A24.5,24.5,0,0,0,171.528,0h-.1A24.714,24.714,0,0,1,170.1,8.4c-.255.555-1.1.832-2.5.832a17.41,17.41,0,0,1-2.5-.209c-.937-.143-1.987-.346-3.044-.6-1.657-.4-3.277-.907-4.852-1.4a49.162,49.162,0,0,0-7.656-1.942C146.924,4.7,144.832,2.9,143.6,0h-.112C144.734,2.962,146.864,4.792,149.541,5.182Z"/>
    <path d="M208.024,2.6c-.135,3.689-.255,6.884-2.706,8.766-2.551,1.972-7,2.535-10.259,2.94-.323.044-.645.09-.945.127a13.15,13.15,0,0,1-1.747.113h0c-3.315,0-6.847-1.118-10.266-2.19a40.171,40.171,0,0,0-9.171-2.122h-.008l-.007.008c-1.687.48-2.107,2.279-1.942,3.8.48,5.947,2.572,10.814,7.244,16.805.937,1.2,1.822,2.422,2.669,3.607a71.575,71.575,0,0,0,4.417,5.676,11.494,11.494,0,0,0,8.923,4.042h0c4.095,0,8.7-1.9,12.636-5.241,4.057-4.4,4.665-10.214,4.942-15.8.022-.435.03-.885.044-1.372.061-2.242.128-5.04,1.231-6.42a15.468,15.468,0,0,1,3.277-2.977v-.12A15.417,15.417,0,0,0,213,15.283c-1.117,1.4-1.184,4.207-1.252,6.464-.015.488-.023.945-.045,1.372-.27,5.564-.877,11.376-4.912,15.74-3.914,3.314-8.489,5.22-12.561,5.22a11.435,11.435,0,0,1-8.848-4.013,70.143,70.143,0,0,1-4.409-5.683c-.848-1.178-1.732-2.392-2.67-3.6-4.656-5.977-6.749-10.836-7.221-16.76-.165-1.47.232-3.224,1.86-3.69a39.736,39.736,0,0,1,9.133,2.115c3.427,1.073,6.966,2.19,10.3,2.19h0a14.793,14.793,0,0,0,1.762-.113c.3-.044.623-.082.945-.12,3.262-.412,7.739-.982,10.3-2.961,2.5-1.92,2.617-5.122,2.76-8.849.029-.772.052-1.574.1-2.377.015-.075.015-.143.023-.218h-.105c0,.075-.008.135-.008.21C208.084,1.021,208.054,1.815,208.024,2.6Z"/>
    <path d="M209.584,52.275l-.015.007c-.69.547-1.732,1.38-1.62,2.527l.008.023.015.014a4.346,4.346,0,0,1,.592.57l.008.016h.014a19.6,19.6,0,0,0,3.855.39h0a19.506,19.506,0,0,0,3.915-.406v-.1a19.215,19.215,0,0,1-7.732.022,5.014,5.014,0,0,0-.57-.555c-.1-1.08.87-1.852,1.575-2.422l.015-.015a22.086,22.086,0,0,1,4.522-2.474c.735-.331,1.47-.675,2.19-1.036V48.72c-.735.367-1.493.72-2.235,1.05A21.562,21.562,0,0,0,209.584,52.275Z"/>
    <path d="M213.949.848a2.768,2.768,0,0,0,2.407,2.617V3.359a2.643,2.643,0,0,1-2.3-2.519,4.382,4.382,0,0,1-.008-.84h-.1A4.531,4.531,0,0,0,213.949.848Z"/>
    <path d="M199.963,19.415a10.81,10.81,0,0,0-2.055.21c-1.529.3-3.164.78-4.9,1.29a54.424,54.424,0,0,1-5.887,1.5c-1.777.323-2.549,1.11-2.346,2.422v.008a37.819,37.819,0,0,1,1.611,4.319c1.095,3.375,2.236,6.862,5,8.677a8.416,8.416,0,0,0,4.6,1.3h0a11.106,11.106,0,0,0,7.589-3.1,12.284,12.284,0,0,0,3.194-6.982,10.482,10.482,0,0,0-1.612-7.589A6.514,6.514,0,0,0,199.963,19.415ZM203.5,35.964a11,11,0,0,1-7.514,3.075,8.224,8.224,0,0,1-4.544-1.289c-2.745-1.793-3.87-5.257-4.972-8.617a36.56,36.56,0,0,0-1.6-4.319c-.187-1.26.525-2,2.265-2.294a57.568,57.568,0,0,0,5.908-1.508c1.725-.51,3.368-.99,4.883-1.29a10.74,10.74,0,0,1,2.039-.2,6.408,6.408,0,0,1,5.107,2.018C208.152,25.661,206.727,32.808,203.5,35.964Z"/>
    <path d="M85.089,64.07c.509.968,1.035,1.965,1.469,2.955.39.847.78,1.739,1.163,2.609,2.332,5.3,4.739,10.791,8.248,15.193a61.556,61.556,0,0,0,4.537,4.874,51.46,51.46,0,0,1,4.058,4.32,21.439,21.439,0,0,1,1.484,2.137,11.8,11.8,0,0,0,3.405,3.891l.014.008.436-.03a131.694,131.694,0,0,0,16.212-1.62,32.258,32.258,0,0,0,8-2.2c3.082-1.582,3.922-4.409,4.822-7.409.1-.307.2-.622.284-.937,1.306-4.244,3.2-8.549,8.092-11.241l.015-.023c.038-.044.075-.089.12-.134,1.013-.533,2.025-1.073,3.044-1.612,1.77-.93,3.6-1.906,5.407-2.835.78-.405,1.553-.825,2.317-1.222,1.185-.638,2.415-1.29,3.629-1.9a14.864,14.864,0,0,0,2.318-1.507l.547-.412a9.931,9.931,0,0,1,2.279-1.327,15.98,15.98,0,0,1,5.092-.788,18.586,18.586,0,0,0,4.455-.555,4.838,4.838,0,0,0,3.12-1.92c2.571-3.749,1.267-6.554-.84-10.1a25.591,25.591,0,0,0-8.032-8.616,13.985,13.985,0,0,0-1.747-.914,12.871,12.871,0,0,1-1.919-1.042c-.7-.48-1.373-1.006-2.025-1.516-.533-.412-1.073-.84-1.627-1.244a32.348,32.348,0,0,0-7.987-4.5,9.579,9.579,0,0,0-3.022-.42,13.383,13.383,0,0,0-2.445.217,8.355,8.355,0,0,0-2.5,1.034c-.337.189-.7.384-1.065.563-.4.18-.824.323-1.229.465a9.172,9.172,0,0,0-1.56.645c-1.23.675-2.422,1.463-3.57,2.227-1.109.735-2.256,1.492-3.433,2.152-5.565,3.128-10.334,4.89-14.976,5.564a28.994,28.994,0,0,1-4.177.308,27.766,27.766,0,0,1-5.129-.472c-1.3-.241-2.647-.615-3.952-.983a26.56,26.56,0,0,0-6.951-1.3,9.886,9.886,0,0,0-3.51.592c-2.2.81-4.169,2.49-6.254,4.275-1.064.907-2.159,1.844-3.352,2.736-.269.2-.607.428-.99.691-.847.6-1.9,1.334-2.812,2.1-1.687,1.448-2.152,2.768-1.6,4.574A28.436,28.436,0,0,0,85.089,64.07Zm-.473-9.134c.908-.771,1.958-1.5,2.812-2.1.383-.263.713-.5.983-.7,1.2-.885,2.3-1.83,3.367-2.738,2.07-1.777,4.026-3.449,6.216-4.258a10.066,10.066,0,0,1,3.48-.593,26.087,26.087,0,0,1,6.921,1.3c1.313.368,2.655.743,3.967.99a28.546,28.546,0,0,0,5.144.466A28.121,28.121,0,0,0,121.69,47c4.672-.675,9.441-2.452,15.021-5.579,1.177-.66,2.324-1.425,3.441-2.152,1.141-.765,2.34-1.545,3.555-2.22a9.48,9.48,0,0,1,1.545-.638,11.307,11.307,0,0,0,1.237-.48c.375-.172.735-.374,1.073-.554a8.37,8.37,0,0,1,2.467-1.027,13.242,13.242,0,0,1,2.429-.225,9.661,9.661,0,0,1,2.992.427,32,32,0,0,1,7.957,4.492c.547.4,1.1.817,1.627,1.237.66.5,1.334,1.027,2.024,1.515A13.855,13.855,0,0,0,169,42.848a13.665,13.665,0,0,1,1.724.908,25.512,25.512,0,0,1,8,8.579c2.091,3.524,3.381,6.306.847,10a4.744,4.744,0,0,1-3.06,1.875,18.86,18.86,0,0,1-4.432.562,15.734,15.734,0,0,0-5.136.787,10.21,10.21,0,0,0-2.288,1.336c-.195.134-.374.277-.554.412a15.517,15.517,0,0,1-2.3,1.507c-1.23.6-2.452,1.252-3.637,1.882-.757.405-1.545.833-2.324,1.23-1.808.937-3.638,1.9-5.4,2.835-1.021.547-2.033,1.087-3.052,1.619l-.016.008a1.209,1.209,0,0,0-.127.142c-4.919,2.722-6.809,7.041-8.121,11.3-.1.315-.2.63-.285.937-.893,2.977-1.74,5.789-4.777,7.341a31.362,31.362,0,0,1-7.971,2.2,131.425,131.425,0,0,1-16.2,1.619l-.4.023a11.651,11.651,0,0,1-3.366-3.847,23.934,23.934,0,0,0-1.485-2.144,54.327,54.327,0,0,0-4.065-4.327,59.723,59.723,0,0,1-4.529-4.875c-3.5-4.394-5.916-9.876-8.241-15.162-.383-.87-.773-1.763-1.155-2.61-.45-.989-.975-1.995-1.484-2.962a29.454,29.454,0,0,1-2.115-4.634C82.517,57.636,82.959,56.346,84.616,54.936Z"/>
    <path d="M93.96,70.871l.2.743c2.032,7.559,5.046,12.043,11.136,16.5l.142.113c3.277,2.4,6.111,4.484,9.261,5.481a18.437,18.437,0,0,0,5.564.772h.008a20.8,20.8,0,0,0,7.454-1.275c5.092-2.107,6.958-6.561,9.1-11.735,2.819-6.771,7.762-15.53,15.253-18.815a12.506,12.506,0,0,1,4.057-.84c.532-.044,1.087-.1,1.649-.179,2.122-.3,4.492-.735,7.259-1.335.39-.075.78-.165,1.17-.255,2.025-.45,4.7-1.725,5.579-3.825a4.257,4.257,0,0,0-.262-4.206c-2.445-3.675-10.866-4.934-14.323-4.942h-.068a44.889,44.889,0,0,0-4.611.315c-.862.09-1.748.187-2.6.24a8.378,8.378,0,0,0-4.1,1.432,9.182,9.182,0,0,1-5.085,1.4,29.355,29.355,0,0,1-4.514-.487c-.472-.083-.967-.158-1.462-.233a47.379,47.379,0,0,0-6.936-.435c-1.665,0-3.345.053-4.964.1s-3.27.1-4.905.1a43.716,43.716,0,0,1-7.581-.562c-.645-.12-1.342-.285-2.085-.457a22.438,22.438,0,0,0-5.2-.817,9.275,9.275,0,0,0-2.73.374c-4.177,1.26-7.671,6.367-8.316,10.356a14.351,14.351,0,0,0,.105,4.815C92.633,65.945,93.277,68.337,93.96,70.871ZM92.153,58.416c.637-3.96,4.094-9.021,8.233-10.273a9.508,9.508,0,0,1,2.708-.376,22.267,22.267,0,0,1,5.174.811c.735.18,1.44.344,2.091.465a43.277,43.277,0,0,0,7.6.562c1.635,0,3.292-.045,4.905-.1s3.3-.1,4.964-.1a48.21,48.21,0,0,1,6.921.436c.5.082.99.157,1.463.232a29.371,29.371,0,0,0,4.528.48,9.339,9.339,0,0,0,5.144-1.395,8.284,8.284,0,0,1,4.05-1.418c.855-.066,1.74-.149,2.6-.239a44.772,44.772,0,0,1,4.6-.315h.068c3.442.008,11.81,1.252,14.233,4.889a4.175,4.175,0,0,1,.255,4.124c-.863,2.063-3.5,3.315-5.5,3.765-.383.082-.773.165-1.163.254-2.767.593-5.137,1.028-7.258,1.328-.556.075-1.111.128-1.643.173a12.662,12.662,0,0,0-4.087.855c-7.529,3.291-12.478,12.072-15.313,18.866-2.137,5.144-3.989,9.591-9.043,11.676a20.59,20.59,0,0,1-7.416,1.268h-.008a18.73,18.73,0,0,1-5.534-.758c-3.134-.99-5.954-3.067-9.238-5.474l-.143-.113c-6.059-4.446-9.066-8.908-11.091-16.444l-.195-.743c-.689-2.535-1.334-4.934-1.8-7.649A14.016,14.016,0,0,1,92.153,58.416Z"/>
    <path d="M207.192,69.035l-.015.022c-.232.42-.457.78-.66,1.095a7.3,7.3,0,0,0-1.342,3.7,29.99,29.99,0,0,0-.046,4.485,25.785,25.785,0,0,1-.157,5.317c-1.034,6.284-6.036,12.762-11.638,15.065a11.421,11.421,0,0,1-1.792.6,7,7,0,0,1-1.147.113h0c-3.292,0-4.049-3.24-4.777-6.366-.172-.7-.337-1.418-.532-2.085a10.568,10.568,0,0,0-3.27-5.527,14.215,14.215,0,0,0-6.636-2.624,18.211,18.211,0,0,0-10.319.99c-.12.037-.225.075-.337.119-1.47.5-2.722.938-3.607,2.31-1.695,2.655-3.075,6.944-2.422,9.981.637,2.977,2.8,3.577,5.076,4.192.443.12.885.247,1.335.382a9.58,9.58,0,0,1,1.74.743,91.379,91.379,0,0,0,11.991,5.519c4.019,1.552,5.969,4.972,7.851,8.256,1.837,3.194,3.727,6.5,7.5,8.076a4.983,4.983,0,0,0,1.927.367h0a8.447,8.447,0,0,0,2.745-.524c2.692-.938,5.1-3.825,6.9-6.231,2.82-3.78,6.322-8.482,10.469-11.5.112-.075.217-.15.33-.225v-.127c-.128.089-.255.179-.39.277-4.154,3.022-7.664,7.732-10.491,11.518-1.785,2.4-4.185,5.272-6.846,6.2a8.489,8.489,0,0,1-2.715.51h0a4.989,4.989,0,0,1-1.89-.352c-3.735-1.568-5.624-4.853-7.447-8.039-1.889-3.308-3.861-6.727-7.91-8.294a91.053,91.053,0,0,1-11.976-5.519,8.951,8.951,0,0,0-1.762-.742c-.435-.143-.893-.263-1.328-.383-2.257-.623-4.386-1.208-5.009-4.124-.645-3.015.727-7.267,2.415-9.907.855-1.334,2.1-1.776,3.547-2.264.112-.045.225-.082.345-.12a19.405,19.405,0,0,1,6.779-1.327,19.171,19.171,0,0,1,3.471.337c5.917,1.088,8.4,3.127,9.839,8.084.195.659.368,1.38.525,2.069.742,3.172,1.514,6.442,4.882,6.442h0a6.374,6.374,0,0,0,1.162-.1,10.782,10.782,0,0,0,1.815-.608,19.125,19.125,0,0,0,7.633-6.126,20.862,20.862,0,0,0,4.072-9.013,27.039,27.039,0,0,0,.15-5.332,28.723,28.723,0,0,1,.053-4.477,7.151,7.151,0,0,1,1.327-3.66c.187-.307.412-.667.66-1.087a10.767,10.767,0,0,1,6.959-2.43,13.044,13.044,0,0,1,2.13.181v-.105a13.968,13.968,0,0,0-2.13-.173A10.858,10.858,0,0,0,207.192,69.035Z"/>
    <path d="M210.776,76.435a18.26,18.26,0,0,0-.727,4.867c-.037.623-.075,1.276-.143,1.98-.239,2.73-.764,5.542-1.282,8.264a57.927,57.927,0,0,0-1.072,7.236V98.8l.022.016a1.827,1.827,0,0,0,1.05.457.67.67,0,0,0,.217-.03l.016-.007c1-.578,2.077-1.1,3.119-1.613a34.825,34.825,0,0,0,4.38-2.392v-.119a34.716,34.716,0,0,1-4.417,2.421c-1.043.51-2.122,1.036-3.128,1.62a.691.691,0,0,1-.172.015,1.739,1.739,0,0,1-.982-.412,57.327,57.327,0,0,1,1.065-7.2c.517-2.722,1.049-5.534,1.29-8.272.067-.7.1-1.356.135-1.979a17.991,17.991,0,0,1,.727-4.844,4.5,4.5,0,0,1,5.482-3.263v-.1a4.64,4.64,0,0,0-1.111-.136A4.825,4.825,0,0,0,210.776,76.435Z"/>
    <path d="M172,89.971c-1.89,0-3.8.93-3.817,3.007v.015c.585,2.04,3.412,4.522,5.872,4.522h0a3.032,3.032,0,0,0,1.642-.458,2.915,2.915,0,0,0,1.282-1.957,4.411,4.411,0,0,0-.817-3.269A5.2,5.2,0,0,0,172,89.971Zm4.881,5.107a2.809,2.809,0,0,1-2.826,2.34c-2.423,0-5.2-2.438-5.775-4.44.023-2.01,1.883-2.9,3.72-2.9a5.1,5.1,0,0,1,4.087,1.814A4.342,4.342,0,0,1,176.881,95.078Z"/>
    <path d="M204.965,102.427l-.023-.008a1.666,1.666,0,0,0-.584-.1,5.861,5.861,0,0,0-2.64,1.043c-.33.187-.668.382-1,.548-.187.1-.374.187-.577.284-2.894,1.418-6.853,3.368-6.576,7.994a3.682,3.682,0,0,0,3.381,2.895h0a3.118,3.118,0,0,0,.51-.045c3.24-1.343,5.175-5.1,6.51-8.242l.1-.224c.6-1.41,1.275-2.993.907-4.125Zm-.99,4.1-.1.232c-1.328,3.112-3.255,6.861-6.45,8.181a3.618,3.618,0,0,1-.48.038h0a3.6,3.6,0,0,1-3.284-2.805c-.278-4.552,3.659-6.479,6.524-7.889.2-.1.4-.187.578-.285.33-.157.667-.36,1-.547a5.68,5.68,0,0,1,2.588-1.027,1.815,1.815,0,0,1,.532.075C205.227,103.6,204.56,105.156,203.975,106.529Z"/>
    <path d="M169.383,137.919a4.3,4.3,0,0,0-2.842-1.335c-2.2,0-3.659,2.512-3.967,4.987a18.651,18.651,0,0,0,.142,5.578,3.321,3.321,0,0,0,2.34,2.94,9.029,9.029,0,0,0,1.133.292,9.6,9.6,0,0,0,1.956.225h0a3.793,3.793,0,0,0,3.435-1.627c.8-1.237.675-4.109.472-5.616A9.209,9.209,0,0,0,169.383,137.919Zm2.107,11.008a3.692,3.692,0,0,1-3.345,1.575,9.376,9.376,0,0,1-1.934-.218,8.853,8.853,0,0,1-1.125-.293,3.162,3.162,0,0,1-2.264-2.864,18.078,18.078,0,0,1-.143-5.534c.3-2.437,1.724-4.905,3.862-4.905a4.179,4.179,0,0,1,2.775,1.305,9.086,9.086,0,0,1,2.632,5.377C172.135,144.765,172.285,147.712,171.49,148.927Z"/>
    <path d="M10.581,171.348c.96-.173,1.77-.375,2.557-.562.96-.233,1.867-.458,3.037-.638,1.072-.157,2.2-.24,3.307-.322,2.467-.158,5.016-.33,7.191-1.469,2.738-1.433,3.022-5.078,2.085-8.055-1.583-5.046-3.622-8.533-6.239-10.663a37.167,37.167,0,0,1-2.925-2.729c-1.882-1.868-3.824-3.8-6.351-4.822a50.481,50.481,0,0,0-6.291-1.92c-1.3-.337-2.633-.69-3.9-1.08-.592-.18-1.238-.412-1.912-.667-.368-.135-.75-.27-1.14-.405v.105c.375.135.743.27,1.1.4.683.248,1.328.488,1.92.668,1.274.39,2.61.742,3.9,1.072a53.5,53.5,0,0,1,6.292,1.92c2.505,1.02,4.439,2.947,6.306,4.8a38.758,38.758,0,0,0,2.94,2.737c2.6,2.115,4.626,5.587,6.2,10.626.923,2.932.653,6.524-2.032,7.919-2.16,1.132-4.694,1.305-7.154,1.477-1.1.067-2.242.15-3.314.315-1.177.188-2.13.413-3.052.638-.78.195-1.582.389-2.542.562-1.762.314-3.555.555-5.3.78-1.829.247-3.614.487-5.271.795v.105c1.657-.316,3.442-.555,5.287-.8C7.026,171.9,8.818,171.671,10.581,171.348Z"/>
    <path d="M8.316,165.282a52.672,52.672,0,0,0,6.876-2.288c2.213-.959,4.455-2.084,5.452-4.349,1.29-2.955.03-6.141-3.374-8.5-.592-.413-1.148-.818-1.7-1.215-2.28-1.673-4.432-3.247-7.536-3.847A55.623,55.623,0,0,0,0,144.4v.105a52.636,52.636,0,0,1,8.024.675c3.074.6,5.219,2.167,7.491,3.832.547.4,1.11.81,1.7,1.215,3.367,2.34,4.612,5.474,3.337,8.376-.975,2.227-3.2,3.352-5.392,4.3a52.723,52.723,0,0,1-6.869,2.287c-1.185.33-2.415.682-3.614,1.065A38.245,38.245,0,0,1,0,167.351v.106a38.625,38.625,0,0,0,4.7-1.111C5.894,165.964,7.124,165.611,8.316,165.282Z"/>
    <path d="M7.589,177.212a50.483,50.483,0,0,0,6.988-.067,48.346,48.346,0,0,0,5.984-1.087c.473-.1.938-.211,1.418-.308.352-.083.7-.158,1.057-.232,3.615-.773,7.357-1.561,10.4-3.638,3.547-2.406,4.012-7.46,2.392-10.947-1.477-3.195-3.952-5.723-6.344-8.167a35.793,35.793,0,0,1-5.512-6.583c-.674-.9-1.229-1.77-1.769-2.611-1.74-2.7-3.112-4.829-6.764-5.683-7.034-1.643-13.108-3.06-14.241-10.071a13.784,13.784,0,0,1,.675-6.3,13.393,13.393,0,0,0,.728-4.491l-.007-.022L2.579,117c-.187-.173-.367-.352-.54-.533a6.462,6.462,0,0,0-.742-.689l-.015-.016H1.259A7.735,7.735,0,0,0,0,115.94v.1a8.562,8.562,0,0,1,1.252-.173,7.632,7.632,0,0,1,.712.668c.173.172.346.36.533.517a13.051,13.051,0,0,1-.72,4.439,13.957,13.957,0,0,0-.675,6.345c1.14,7.079,7.244,8.5,14.315,10.153,3.615.839,4.979,2.962,6.7,5.639.54.847,1.11,1.71,1.777,2.61a36.373,36.373,0,0,0,5.52,6.606c2.384,2.437,4.859,4.95,6.336,8.129,1.59,3.457,1.147,8.443-2.363,10.836-3.044,2.054-6.763,2.856-10.363,3.614-.359.075-.712.158-1.064.225-.473.1-.946.21-1.418.323a50.966,50.966,0,0,1-5.976,1.079,50.338,50.338,0,0,1-6.967.068A41.543,41.543,0,0,0,0,177.3v.105A42.262,42.262,0,0,1,7.589,177.212Z"/>
    <path d="M77.628,154.506a5.16,5.16,0,0,1,.884.487,14.358,14.358,0,0,1,2.82,2.865,16.815,16.815,0,0,1,3.194,6.787c.877,3.712,3.2,5.181,6.929,6.471a21.217,21.217,0,0,0,6.832,1.132,19.623,19.623,0,0,0,3.434-.3c4.02-.72,6.6-3.149,7.071-6.689.105-.735.241-1.507.376-2.249.547-3,1.109-6.1-.631-8.872-1.424-2.249-4.116-2.564-6.816-2.564-.517,0-1.05.015-1.544.022s-1.006.03-1.485.03a15.843,15.843,0,0,1-2.31-.142c-2.152-.345-4.3-.87-6.351-1.38a42.218,42.218,0,0,0-9.846-1.635,19.16,19.16,0,0,0-2,.113,2.731,2.731,0,0,0-2,1.9,3.349,3.349,0,0,0,.121,3.164A4.01,4.01,0,0,0,77.628,154.506Zm-1.335-3.99a2.613,2.613,0,0,1,1.9-1.829,18.736,18.736,0,0,1,1.987-.113A41.551,41.551,0,0,1,90,150.2c2.069.509,4.206,1.035,6.366,1.372a14.211,14.211,0,0,0,2.325.143c.479,0,.989-.008,1.485-.016s1.027-.022,1.544-.022c2.67,0,5.332.3,6.726,2.512,1.718,2.73,1.163,5.819.623,8.8-.135.75-.278,1.522-.375,2.257-.473,3.487-3.014,5.887-6.989,6.606a18.731,18.731,0,0,1-3.419.293,21.249,21.249,0,0,1-6.8-1.117c-3.7-1.283-6-2.737-6.861-6.412a16.947,16.947,0,0,0-3.217-6.823,14.435,14.435,0,0,0-2.827-2.88,6.6,6.6,0,0,0-.9-.5,3.838,3.838,0,0,1-1.282-.825A3.243,3.243,0,0,1,76.293,150.516Z"/>
    <path d="M96.15,168.034a11.415,11.415,0,0,0,3.021-.4,5.059,5.059,0,0,0,.51-.2,2.461,2.461,0,0,0,1.56-2.19,3.039,3.039,0,0,0-.877-2.114,2.847,2.847,0,0,0-2.9-.773c-1.125.345-3.487,1.687-4.185,3.157a1.707,1.707,0,0,0-.1,1.433C93.548,167.839,95,168.034,96.15,168.034Zm-2.79-2.475c.7-1.44,3.015-2.774,4.124-3.1a2.867,2.867,0,0,1,.817-.12,2.732,2.732,0,0,1,1.988.862,2.867,2.867,0,0,1,.848,2.047,2.346,2.346,0,0,1-1.5,2.092,4.975,4.975,0,0,1-.5.2,11.314,11.314,0,0,1-2.992.39c-1.6,0-2.61-.36-2.873-1.012A1.591,1.591,0,0,1,93.36,165.559Z"/>
    <path d="M127.194,205.985a5.916,5.916,0,0,1-.007-.72,5.71,5.71,0,0,0-.015-.794,32.841,32.841,0,0,0-1.559-5.752,43.79,43.79,0,0,1-1.816-6.531c-.142-.9-.239-1.868-.337-2.8-.292-3.06-.592-6.21-2.73-7.619a8,8,0,0,0-4.446-.937c-1.155,0-2.4.09-3.622.172-.473.03-.953.067-1.425.1-4.222.255-13.01,1.35-16.077,3.675-4.185,3.172-4.687,8.616-4.619,13.535.494,6.187,4.723,9.652,9.381,13.146h.165c-4.68-3.51-8.947-6.959-9.457-13.153-.059-4.882.443-10.3,4.6-13.445,3.038-2.31,11.8-3.405,16.018-3.66.472-.022.952-.068,1.432-.1,1.215-.089,2.459-.172,3.607-.172a7.952,7.952,0,0,1,4.394.923c2.093,1.379,2.392,4.506,2.692,7.543.083.938.18,1.912.331,2.812a43.986,43.986,0,0,0,1.814,6.554,30.623,30.623,0,0,1,1.552,5.722,5.384,5.384,0,0,1,.015.78,4.8,4.8,0,0,0,.015.735,14.159,14.159,0,0,1-.562,5.459h.105A14.19,14.19,0,0,0,127.194,205.985Z"/>
    <path d="M14.3,206.705c-.06-1.425-.022-2.857.03-4.244A24.332,24.332,0,0,0,14.1,196.7c-.893-3.982-5.909-6.824-10.312-8.159A9.82,9.82,0,0,0,0,188.116v.1a10.043,10.043,0,0,1,3.764.428c4.372,1.327,9.351,4.146,10.236,8.076a24.132,24.132,0,0,1,.233,5.736c-.053,1.4-.1,2.827-.03,4.252a30.513,30.513,0,0,1-.15,4.747h.1A30.429,30.429,0,0,0,14.3,206.705Z"/>
    <path d="M121.975,205.063c-.187-.968-.54-2.137-.914-3.382a43.159,43.159,0,0,1-1.455-5.887c-.09-.585-.165-1.139-.24-1.68-.488-3.524-.87-6.306-3.224-8.151-1.6-1.252-4.6-2-8.024-2-4.162,0-8.031,1.05-10.356,2.812-3.817,2.888-3.967,7.979-3.427,11.743.84,4.012,3.719,6.074,7.371,8.707a55.669,55.669,0,0,1,5.257,4.1c.045.037.09.09.142.127h.151c-.083-.061-.151-.135-.233-.2a58.388,58.388,0,0,0-5.249-4.116c-3.637-2.6-6.51-4.665-7.342-8.639-.547-3.735-.4-8.781,3.4-11.645,2.3-1.74,6.149-2.783,10.289-2.783,3.4,0,6.366.735,7.964,1.98,2.332,1.815,2.7,4.574,3.179,8.076.083.547.15,1.11.24,1.68a42.67,42.67,0,0,0,1.462,5.9c.375,1.245.727,2.415.908,3.375a13.461,13.461,0,0,1-.4,6.374h.105A13.535,13.535,0,0,0,121.975,205.063Z"/>
    <path d="M49.08,199.094a18.514,18.514,0,0,1-.5-6.179,9.161,9.161,0,0,1,.269-1.26c.4-1.56.892-3.494-1.065-4.9l-.015-.007H47.76c-3.63-.428-5.835,2.549-7.777,5.174-.509.7-.982,1.335-1.477,1.927a27.7,27.7,0,0,1-6.734,4.6c-3.952,2.2-8.046,4.469-9.966,8.893a42.539,42.539,0,0,0-1.484,4.11h.1c.458-1.41.93-2.843,1.463-4.072,1.92-4.4,5.991-6.651,9.936-8.841a27.406,27.406,0,0,0,6.749-4.627c.5-.585.982-1.238,1.492-1.919,1.927-2.6,4.1-5.558,7.671-5.144,1.883,1.364,1.425,3.179,1.02,4.783a10.87,10.87,0,0,0-.285,1.275,18.881,18.881,0,0,0,.51,6.209,70.541,70.541,0,0,0,2.572,6.982c.72,1.747,1.447,3.539,2.085,5.354h.1c-.638-1.83-1.38-3.63-2.093-5.392A67.527,67.527,0,0,1,49.08,199.094Z"/>
    <path d="M106.5,187a10.124,10.124,0,0,0-5.931,1.77c-1.9,1.432-3.045,3.157-2.835,7.341,1.3,5.332,7.079,8.2,11.863,8.2h0a11.07,11.07,0,0,0,1.815-.143h.014l.008-.007a11.272,11.272,0,0,0,1.89-2.024l.008-.023c1.754-5.422,1.671-9.928-.218-12.358A8.167,8.167,0,0,0,106.5,187Zm6.741,15.088a12.037,12.037,0,0,1-1.852,1.995,12.908,12.908,0,0,1-1.792.135h0c-4.754,0-10.483-2.85-11.758-8.115-.211-4.138.914-5.841,2.782-7.251A10.052,10.052,0,0,1,106.5,187.1a8.076,8.076,0,0,1,6.531,2.715C114.9,192.218,114.971,196.694,113.239,202.086Z"/>
    <path d="M81.842,201.944c-.758-3.645-1.53-7.4-3.907-10.394a4.655,4.655,0,0,0-4.642-1.853c-3.929.586-8.6,4.14-11.113,6.06A12.224,12.224,0,0,0,58.933,206.6a39.809,39.809,0,0,0,1.117,4.852h.106a37.543,37.543,0,0,1-1.118-4.867,12.13,12.13,0,0,1,3.209-10.761c2.5-1.9,7.155-5.452,11.062-6.021a5.875,5.875,0,0,1,.869-.068,4.49,4.49,0,0,1,3.675,1.882c2.362,2.97,3.141,6.712,3.891,10.341.668,3.262,1.357,6.645,3.232,9.367a.563.563,0,0,0,.09.127h.12c-.044-.053-.09-.12-.134-.18C83.2,208.565,82.509,205.2,81.842,201.944Z"/>
    <path d="M106.985,193.867l-.007-.015a1.935,1.935,0,0,0-1.6-1.012,1.548,1.548,0,0,0-.6.12l-.008.007a1.746,1.746,0,0,0-.681,1.163,1.019,1.019,0,0,0,.261.81,3,3,0,0,1,.391.374l.007.008h.016a1.651,1.651,0,0,0,.592.112h0a1.89,1.89,0,0,0,1.619-1.012l.008-.022c.015-.181.007-.368.007-.525Zm-.112.518a1.762,1.762,0,0,1-1.522.944h0a1.84,1.84,0,0,1-.556-.09,3.389,3.389,0,0,0-.382-.367.952.952,0,0,1-.232-.735,1.7,1.7,0,0,1,.63-1.087,1.546,1.546,0,0,1,.562-.105,1.827,1.827,0,0,1,1.507.944A3.615,3.615,0,0,1,106.873,194.385Z"/>
    <path d="M4.979,198.351C3.727,196.814,2.557,196.184,0,195.7v.1c2.512.473,3.667,1.087,4.9,2.6,2.182,2.692,3.524,7.7,3.847,11.219q.09.978.09,1.822h.1c0-.563-.022-1.178-.082-1.83C8.533,206.09,7.176,201.051,4.979,198.351Z"/>
    <path d="M69.506,199.671c-.142,0-.292,0-.442.015a5.065,5.065,0,0,0-3.5,1.837,9.076,9.076,0,0,0-1.642,6.712,25.065,25.065,0,0,0,.51,3.217h.1a26.674,26.674,0,0,1-.51-3.225,9.01,9.01,0,0,1,1.62-6.644,4.968,4.968,0,0,1,3.434-1.807c.15-.007.293-.015.435-.015,4.072,0,5.579,4.852,6.907,9.119.277.9.547,1.777.832,2.572h.113c-.293-.795-.563-1.688-.848-2.6C75.175,204.545,73.661,199.671,69.506,199.671Z"/>
    <path d="M41.851,203.706a14.517,14.517,0,0,0-2.063-.143,15.17,15.17,0,0,0-7.82,2.167,14.821,14.821,0,0,0-5.422,5.722h.112a14.774,14.774,0,0,1,13.13-7.792,17.073,17.073,0,0,1,2.055.136c2.962.4,5.887,2.864,8,6.741.165.3.33.607.472.915h.1c-.15-.322-.315-.645-.488-.96C47.8,206.585,44.858,204.11,41.851,203.706Z"/>
    <path d="M.142,208A.919.919,0,0,0,0,208v.091H.142a2.013,2.013,0,0,1,1.815,1.424,5.04,5.04,0,0,1,.353,1.935h.112a5.169,5.169,0,0,0-.375-1.973A2.12,2.12,0,0,0,.142,208Z"/>
    <path d="M34.045,211.452h.172a9.76,9.76,0,0,1,5.482-1.71,8.41,8.41,0,0,1,5.159,1.71h.165a8.493,8.493,0,0,0-5.324-1.807A9.81,9.81,0,0,0,34.045,211.452Z"/>
    <path d="M179.386,201.711a74.288,74.288,0,0,1-3.4-6.764c-.54-1.275-1.027-2.67-1.544-4.155-2.2-6.336-4.7-13.512-12.441-13.512H161.7a18.439,18.439,0,0,0-7.185,1.867c-.419.187-.854.39-1.289.6-1.3.593-2.64,1.208-3.847,1.876-3.517,1.942-7.551,2.887-11.443,3.809l-.053.008c-.329.082-.682.164-1.057.232-2.609.555-5.857,1.252-6.891,4.282-.788,2.339-.06,5.331.637,8.219.255,1.057.5,2.054.66,3a26.662,26.662,0,0,1,.1,9.178c-.068.361-.143.728-.233,1.1h.106c.089-.368.157-.728.225-1.087a26.867,26.867,0,0,0-.106-9.209c-.172-.953-.4-1.95-.659-3.007-.705-2.88-1.418-5.857-.638-8.166,1.012-2.985,4.23-3.66,6.817-4.207.375-.082.727-.158,1.057-.24l.052-.007c3.907-.916,7.95-1.868,11.473-3.818,1.193-.659,2.535-1.282,3.833-1.882.442-.2.869-.4,1.289-.592a18.332,18.332,0,0,1,7.147-1.859c.1-.008.209-.008.307-.008,7.664,0,10.146,7.146,12.35,13.46.51,1.477,1,2.88,1.538,4.162.989,2.34,2.212,4.59,3.4,6.779,1.013,1.852,1.972,3.6,2.8,5.406a17.974,17.974,0,0,0,2.588,4.275h.134a17.338,17.338,0,0,1-2.639-4.312C181.358,205.333,180.4,203.578,179.386,201.711Z"/>
    <path d="M213.581,182.754c-6.374,2.407-10.633,6.951-12.3,13.146a57.1,57.1,0,0,0-1.118,6.073,44.8,44.8,0,0,1-1.477,7.3,7.09,7.09,0,0,1-1.223,2.174h.12a7.079,7.079,0,0,0,1.193-2.138,43.609,43.609,0,0,0,1.485-7.326,58.432,58.432,0,0,1,1.117-6.066c1.665-6.149,5.894-10.678,12.245-13.078a17.363,17.363,0,0,1,2.19-.6c.18-.03.36-.067.548-.09v-.1c-.195.037-.383.06-.571.1A16.718,16.718,0,0,0,213.581,182.754Z"/>
    <path d="M207.387,136.989a25.893,25.893,0,0,0-5.9,2.414,25.131,25.131,0,0,1-5.893,2.385c-5.243,1.133-7.185-3.457-8.894-7.521-.248-.578-.48-1.133-.713-1.665a35.216,35.216,0,0,0-3.3-5.775,30.319,30.319,0,0,0-8.391-8.158,19.177,19.177,0,0,0-7.649-3.127c-3.772-.5-6.457.667-9.546,2.009-.668.293-1.365.6-2.077.886-2.04.824-4.357,1.762-5.939,3.8a28.19,28.19,0,0,0-2.94,5.181l-.2.405a100.32,100.32,0,0,0-4,10.018c-.278.781-.556,1.575-.826,2.355-.742,2.137-1.507,4.35-2.444,6.441a21.55,21.55,0,0,1-2.79,4.335c-.577.75-1.17,1.522-1.687,2.324a28.014,28.014,0,0,1-5.422,5.5c-.727.622-1.417,1.207-2.061,1.8-.406.361-.833.735-1.3,1.125-2.085,1.8-4.447,3.84-5.069,6.427-.083.345-.158.689-.233,1.02-.667,2.894-1.252,5.4-4.147,7.213-2.737,1.718-6.066,2.272-9,2.76-1.387.232-2.8.412-4.154.6a57.176,57.176,0,0,0-7.042,1.2c-4.919,1.312-7.919,4.724-8.916,10.16a30.772,30.772,0,0,0,1.11,14.421,15.529,15.529,0,0,0,4.627,5.924h.165a15.551,15.551,0,0,1-4.7-5.969,30.716,30.716,0,0,1-1.1-14.36c1-5.392,3.96-8.782,8.842-10.071a55.4,55.4,0,0,1,7.033-1.215c1.358-.173,2.768-.352,4.155-.585,2.939-.5,6.276-1.05,9.036-2.782,2.94-1.838,3.509-4.357,4.184-7.274.082-.33.165-.675.24-1.02.615-2.557,2.97-4.574,5.039-6.366.458-.4.9-.773,1.3-1.14.645-.585,1.328-1.177,2.063-1.792a27.773,27.773,0,0,0,5.429-5.527c.525-.795,1.117-1.568,1.688-2.317a22.6,22.6,0,0,0,2.812-4.349c.936-2.093,1.7-4.312,2.444-6.457.27-.772.547-1.575.824-2.355a102.022,102.022,0,0,1,4-10.011l.187-.4a28.481,28.481,0,0,1,2.947-5.167c1.561-2.01,3.863-2.94,5.887-3.757.72-.3,1.41-.6,2.077-.885,3.082-1.349,5.745-2.512,9.5-2.017a19.133,19.133,0,0,1,7.6,3.12,30.143,30.143,0,0,1,8.369,8.143,35.129,35.129,0,0,1,3.277,5.752c.24.525.472,1.08.719,1.665a21.143,21.143,0,0,0,3.135,5.714,5.724,5.724,0,0,0,5.88,1.867,25.457,25.457,0,0,0,5.908-2.407,26.055,26.055,0,0,1,5.879-2.392,15.948,15.948,0,0,1,8.947,1.027v-.105A16.153,16.153,0,0,0,207.387,136.989Z"/>
    <path d="M202.108,174.887c-2.378,2.31-4.627,4.5-7.574,5.355-4.094,1.207-7.192-1.807-10.191-4.732-.18-.18-.367-.36-.548-.54a28.49,28.49,0,0,0-5.106-3.659,39.628,39.628,0,0,1-3.749-2.5c-.885-.7-1.823-1.342-2.73-1.964-.615-.435-1.245-.87-1.845-1.3a10.04,10.04,0,0,1-2.384-3.014,17.092,17.092,0,0,0-1.17-1.762,19.148,19.148,0,0,0-4.364-3.705c-2.9-1.995-5.632-3.884-5.827-7.8a20.806,20.806,0,0,1,1.44-7.948,23.377,23.377,0,0,1,5.091-7.657c1.537-1.559,3.1-2.287,4.635-2.16,2.729.233,5.069,3.12,6.8,5.617a13.432,13.432,0,0,1,1.845,4.379,24.592,24.592,0,0,0,.893,2.707c.389.945.862,1.875,1.3,2.775a25.99,25.99,0,0,1,1.905,4.447c.764,2.617.915,6.411-.27,8.6-1.155,2.115-.607,5.707.607,7.589,1.1,1.709,3.862,2.8,6.082,3.674.5.195.967.39,1.387.562.195.09.4.173.585.263a10.076,10.076,0,0,0,2.025.743c3.441.7,5.819-.946,7.251-5.04a9.43,9.43,0,0,0-2.94-11.031,21.79,21.79,0,0,0-3.367-2.129c-.517-.285-1.057-.585-1.575-.892-.134-.083-.269-.158-.4-.248a16.78,16.78,0,0,1-4.387-3.292,27.682,27.682,0,0,1-3.75-6.231c-.48-1.125-.862-2.273-1.259-3.5-.293-.877-.593-1.777-.938-2.692a22.956,22.956,0,0,0-2.842-5.122c-1.62-2.2-4.536-5.166-7.439-6.246-4.589-1.7-10.768,2.827-13.805,6.276a22.748,22.748,0,0,0-3.667,6.449c-.232.57-.457,1.155-.69,1.717a39.564,39.564,0,0,1-4.424,8.872,27.647,27.647,0,0,0-1.672,2.744c-.368.653-.742,1.342-1.162,2a10.458,10.458,0,0,1-4.282,3.479c-.735.383-1.5.735-2.235,1.088a22.254,22.254,0,0,0-6.119,3.711,3.605,3.605,0,0,0-1.35,3.4c.4,1.949,2.557,3.411,4.455,4.116,3.937,1.47,8.5.938,12.508.458l.517-.052c.323-.038.638-.068.952-.106a12.142,12.142,0,0,0,5.13-1.312c.269-.15.532-.3.8-.45a26.467,26.467,0,0,1,7.655-3.352c1.83-.412,4.552-.375,6.209.668a4.274,4.274,0,0,1,1.553,2.114,7.857,7.857,0,0,0,.81,1.5,26.423,26.423,0,0,0,5.1,4.649,26.847,26.847,0,0,1,5.032,4.545,25.89,25.89,0,0,1,2.212,3.629A23.876,23.876,0,0,0,185,186.151a5.62,5.62,0,0,0,6.367,1.987c2.129-.667,4.491-2.474,6.779-4.222.352-.269.689-.532,1.027-.787,1.192-.9,2.354-1.845,3.479-2.76,3.09-2.512,6.014-4.889,9.306-6.223a24.013,24.013,0,0,1,4.395-1.215v-.105a23.518,23.518,0,0,0-4.432,1.229c-3.308,1.335-6.239,3.727-9.336,6.239-1.125.915-2.28,1.852-3.473,2.752-.337.255-.681.518-1.019.788-2.279,1.739-4.634,3.547-6.757,4.206a5.51,5.51,0,0,1-6.253-1.957,23.555,23.555,0,0,1-2.175-3.547,25.373,25.373,0,0,0-2.227-3.652,27.338,27.338,0,0,0-5.047-4.566,26.2,26.2,0,0,1-5.077-4.635,8.057,8.057,0,0,1-.8-1.469,4.532,4.532,0,0,0-1.583-2.167c-1.687-1.058-4.446-1.095-6.291-.683a26.593,26.593,0,0,0-7.686,3.375c-.262.142-.533.292-.8.457a12.208,12.208,0,0,1-5.092,1.282c-.307.038-.63.075-.952.1l-.51.068c-4.012.465-8.549,1-12.47-.465-2.348-.87-4.072-2.46-4.387-4.042a3.493,3.493,0,0,1,1.327-3.3,22.49,22.49,0,0,1,6.081-3.705c.743-.337,1.508-.7,2.25-1.08a10.528,10.528,0,0,0,4.319-3.525c.413-.651.8-1.326,1.163-1.986a26.917,26.917,0,0,1,1.665-2.73,39.7,39.7,0,0,0,4.439-8.9c.225-.57.45-1.14.689-1.725a22.972,22.972,0,0,1,3.645-6.412c3.014-3.427,9.149-7.933,13.693-6.245,2.879,1.064,5.782,4.019,7.387,6.216a21.879,21.879,0,0,1,2.842,5.091c.344.908.645,1.815.929,2.685.4,1.222.78,2.377,1.267,3.5a27.824,27.824,0,0,0,3.758,6.254,17.065,17.065,0,0,0,4.409,3.322c.142.075.277.158.42.248.51.307,1.057.6,1.575.892a20.892,20.892,0,0,1,3.344,2.115,9.357,9.357,0,0,1,2.917,10.925c-1.417,4.042-3.757,5.662-7.147,4.972a9.715,9.715,0,0,1-2-.735c-.188-.083-.391-.173-.586-.27-.412-.172-.892-.353-1.387-.555-2.212-.877-4.957-1.957-6.036-3.637-1.193-1.86-1.74-5.391-.608-7.484,1.193-2.2,1.042-6.044.277-8.683a27.049,27.049,0,0,0-1.9-4.462c-.458-.9-.916-1.83-1.306-2.774a24.327,24.327,0,0,1-.892-2.693,13.363,13.363,0,0,0-1.86-4.409c-1.747-2.505-4.109-5.422-6.876-5.654-1.567-.135-3.149.6-4.709,2.182a23.46,23.46,0,0,0-5.115,7.694,20.929,20.929,0,0,0-1.446,7.994c.195,3.959,3.074,5.946,5.863,7.873a19.209,19.209,0,0,1,4.35,3.682,15.831,15.831,0,0,1,1.162,1.763,10.336,10.336,0,0,0,2.4,3.029c.607.442,1.244.885,1.852,1.305.9.63,1.837,1.282,2.722,1.965a37.134,37.134,0,0,0,3.765,2.5,28.169,28.169,0,0,1,5.084,3.659c.195.18.367.352.554.54,3.015,2.932,6.135,5.977,10.289,4.754,2.962-.862,5.226-3.052,7.619-5.376,2.265-2.2,4.619-4.493,7.783-5.819a34.474,34.474,0,0,1,6.39-1.778v-.1a33.9,33.9,0,0,0-6.434,1.8C206.75,170.388,204.4,172.676,202.108,174.887Z"/>
    <path d="M205.8,144.99a23.025,23.025,0,0,0-5.054,2.032c-2.925,1.44-5.939,2.932-8.721,2.062-5-1.559-6.922-6.876-8.617-11.555-.352-.96-.674-1.86-1.026-2.73a25.085,25.085,0,0,0-2.887-5.3,23.863,23.863,0,0,0-6.269-5.616c-.353-.24-.7-.488-1.058-.735-2.032-1.447-4.514-2.872-7.379-2.46a9.188,9.188,0,0,0-2.737,1.073,14.188,14.188,0,0,1-1.635.764c-.39.143-.787.293-1.192.443-3.067,1.1-6.239,2.257-8.421,4.739a16.958,16.958,0,0,0-1.68,2.527c-.27.472-.525.908-.787,1.328a30.227,30.227,0,0,0-2.79,5.436,42.347,42.347,0,0,0-1.777,6.6,38.772,38.772,0,0,1-1.988,7.079c-.982,2.294-3.576,3.944-5.871,5.392-.622.4-1.214.772-1.74,1.147a33.4,33.4,0,0,0-4.214,3.674c-.854.833-1.74,1.7-2.677,2.49a8.559,8.559,0,0,0-2.542,8.159c1.05,5.609,3.232,6.531,7.957,7.318a38.616,38.616,0,0,0,12.8-.419c2.888-.511,5.632-2.377,8.28-4.17.966-.66,1.874-1.274,2.766-1.807,3.72-2.249,8.137-1.777,11.8,1.252.473.383.946.765,1.418,1.133,2.79,2.234,5.429,4.341,6.831,7.693a32.8,32.8,0,0,1,1.425,4.538,33.555,33.555,0,0,0,1.38,4.453,18.274,18.274,0,0,0,4.6,6.285c1.673,1.477,4.207,3.066,6.771,2.316,2.385-.7,3.788-3.4,5.28-6.269a29.116,29.116,0,0,1,3.232-5.256,36.267,36.267,0,0,1,5.5-5.077l.158-.128c3.329-2.579,6.464-5.024,10.618-5.848.262-.06.533-.106.8-.143V177.3c-.278.045-.548.09-.833.142-4.177.833-7.319,3.285-10.641,5.872l-.172.128a37.151,37.151,0,0,0-5.512,5.092,30.054,30.054,0,0,0-3.239,5.279c-1.478,2.849-2.88,5.534-5.22,6.216-2.511.742-5.016-.832-6.673-2.287a18.3,18.3,0,0,1-4.574-6.254,33.267,33.267,0,0,1-1.38-4.439,33.285,33.285,0,0,0-1.426-4.552c-1.416-3.375-4.191-5.587-6.876-7.731-.457-.368-.937-.75-1.4-1.132-3.712-3.06-8.166-3.525-11.923-1.268-.9.54-1.807,1.155-2.76,1.807-2.654,1.8-5.391,3.652-8.256,4.155a37.849,37.849,0,0,1-12.763.42c-4.672-.773-6.831-1.695-7.874-7.237a8.441,8.441,0,0,1,2.505-8.053c.938-.8,1.83-1.665,2.692-2.5a33.475,33.475,0,0,1,4.192-3.667c.525-.367,1.125-.742,1.74-1.14,2.3-1.454,4.912-3.1,5.909-5.429a38.892,38.892,0,0,0,1.994-7.1,41.648,41.648,0,0,1,1.778-6.577,30.342,30.342,0,0,1,2.774-5.429c.271-.412.525-.862.8-1.328a16.7,16.7,0,0,1,1.672-2.511c2.167-2.46,5.325-3.607,8.376-4.717.4-.15.8-.292,1.2-.435a16.825,16.825,0,0,0,1.627-.773,9.277,9.277,0,0,1,2.714-1.065c2.834-.4,5.279,1.013,7.311,2.445.36.255.7.488,1.051.728a23.867,23.867,0,0,1,6.246,5.593,25.233,25.233,0,0,1,2.879,5.295c.346.855.668,1.762,1.02,2.722,1.7,4.7,3.63,10.041,8.692,11.616,2.811.877,5.856-.623,8.788-2.07a22.813,22.813,0,0,1,5.024-2.024,53.743,53.743,0,0,1,10.544-.586V144.4A54.982,54.982,0,0,0,205.8,144.99Z"/>
    <path d="M203.75,64.805a11.331,11.331,0,0,0-4.874,7.986,17.017,17.017,0,0,0,.1,4.177,16.5,16.5,0,0,1,.09,4.417,5.352,5.352,0,0,1-2.258,3.764,2.859,2.859,0,0,1-2.571.173c-2.955-3.435-5.369-5.715-9.007-7.2-1.042-.42-2.091-.788-3.4-1.192-.637-.2-1.282-.413-1.905-.615a33.227,33.227,0,0,0-14.7-2.085c-3.2.262-5.6.855-7.7,2.977a25.252,25.252,0,0,0-3.434,4.725,38.87,38.87,0,0,1-2.347,3.479c-.443.555-.96,1.1-1.462,1.635a17.285,17.285,0,0,0-2.093,2.5c-1.177,1.867-1.229,4.979-.787,7.071.585,2.737,2.332,5.084,4.087,7.259.428.54.84,1.133,1.29,1.755,1.169,1.68,2.384,3.411,4.071,4.311a11.227,11.227,0,0,0,6.067.84,11.86,11.86,0,0,0,2.137-.427,7.221,7.221,0,0,1,3.119-.383c3.652.653,7.792,3.2,10.439,5.362a25,25,0,0,1,3.877,3.929c.884,1.125,1.732,2.257,2.64,3.472,1.544,2.07,3.141,4.207,4.957,6.322,1.686,1.972,3.883,3.832,7.333,2.639a20.3,20.3,0,0,0,5.212-3,43.5,43.5,0,0,0,6.449-6.427,34.763,34.763,0,0,1,5.346-5.369,5.157,5.157,0,0,1,1.928-.862v-.1a5.21,5.21,0,0,0-1.987.877A34.574,34.574,0,0,0,209,122.209a42.543,42.543,0,0,1-6.428,6.4,19.384,19.384,0,0,1-5.181,2.984c-3.4,1.178-5.564-.66-7.229-2.6-1.807-2.115-3.412-4.259-4.949-6.322-.908-1.215-1.762-2.354-2.647-3.471a24.856,24.856,0,0,0-3.892-3.953c-2.662-2.167-6.817-4.724-10.483-5.376a7.287,7.287,0,0,0-3.165.382,11.509,11.509,0,0,1-2.115.42,11.09,11.09,0,0,1-6.014-.825c-1.664-.884-2.871-2.609-4.042-4.274-.434-.63-.854-1.222-1.289-1.77-1.74-2.152-3.5-4.492-4.064-7.214-.436-2.077-.383-5.152.779-7a16.24,16.24,0,0,1,2.077-2.489c.5-.526,1.028-1.073,1.463-1.628a34.336,34.336,0,0,0,2.347-3.494,25.279,25.279,0,0,1,3.434-4.7c2.078-2.1,4.462-2.692,7.634-2.955a33.166,33.166,0,0,1,14.66,2.085c.623.2,1.268.412,1.905.615,1.305.405,2.362.773,3.39,1.193,3.629,1.469,6.044,3.749,8.975,7.175l.008.008.015.008a3.036,3.036,0,0,0,2.677-.173,5.5,5.5,0,0,0,2.31-3.839,17.314,17.314,0,0,0-.1-4.439,17.624,17.624,0,0,1-.106-4.155,11.261,11.261,0,0,1,4.83-7.919c3.1-2.151,7.423-3.157,12.553-2.961V61.82C211.2,61.633,206.862,62.638,203.75,64.805Z"/>
    <path d="M58.971,9.644a17.149,17.149,0,0,1-.1,5.781c-.81,2.895-3.15,5.384-5.406,7.8-3.195,3.4-6.494,6.914-5.482,11.616a5.9,5.9,0,0,0,4.2,4.822,21.163,21.163,0,0,0,7.161.39,25.281,25.281,0,0,1,10.379,1.3A27.782,27.782,0,0,1,75.333,44.6c2.385,1.642,4.642,3.2,7.191,3.548a7.584,7.584,0,0,0,2.82-.113,17.537,17.537,0,0,0,6.089-3c3.239-2.152,6.584-4.387,13.078-3.09,1.425.278,2.841.7,4.342,1.148,4.784,1.417,9.733,2.872,15.267-.06,5-2.512,8.152-7.124,11.189-11.586a70.116,70.116,0,0,1,4.506-6.126c2.077-2.415,4.905-5.722,8.376-4.574a27.365,27.365,0,0,0,4.23.892,16.739,16.739,0,0,1,6.546,2,17.426,17.426,0,0,1,3.72,3.51c.517.592,1.057,1.207,1.619,1.777a28.926,28.926,0,0,1,3.225,4.154,33.921,33.921,0,0,0,2.692,3.577c1.349,1.192,2.534,2.235,3.914,3.48a54.29,54.29,0,0,1,4.657,5.068c2.819,3.353,5.474,6.51,8.946,7.529a14.074,14.074,0,0,0,8.219-.3,46.709,46.709,0,0,0,5.609-2.2,75.658,75.658,0,0,0,9.794-5.4,13.408,13.408,0,0,0,4.994-6.067v-.262a13.286,13.286,0,0,1-5.04,6.239,76.166,76.166,0,0,1-9.793,5.4,46.287,46.287,0,0,1-5.587,2.2,14.1,14.1,0,0,1-8.166.308c-3.442-1.012-6.089-4.162-8.9-7.5a52.68,52.68,0,0,0-4.672-5.076c-1.38-1.252-2.557-2.3-3.907-3.487a34.117,34.117,0,0,1-2.677-3.562,30.02,30.02,0,0,0-3.232-4.162c-.57-.57-1.1-1.185-1.619-1.785a17.262,17.262,0,0,0-3.742-3.516,16.6,16.6,0,0,0-6.585-2.01,27.5,27.5,0,0,1-4.206-.9c-3.539-1.162-6.4,2.167-8.489,4.6a71.98,71.98,0,0,0-4.514,6.134c-3.037,4.462-6.172,9.066-11.143,11.556-5.5,2.917-10.439,1.462-15.208.053-1.5-.443-2.917-.862-4.349-1.148-6.524-1.3-9.891.937-13.145,3.1a17.5,17.5,0,0,1-6.067,2.985,7.423,7.423,0,0,1-2.775.105c-2.519-.33-4.777-1.882-7.153-3.532a27.905,27.905,0,0,0-5.632-3.262,25.407,25.407,0,0,0-10.416-1.3c-4.7.262-10.041.562-11.263-5.13-.99-4.649,2.287-8.151,5.459-11.533,2.272-2.422,4.619-4.919,5.429-7.836a16.634,16.634,0,0,0,.112-5.819A57.54,57.54,0,0,0,57.043.975C56.954.653,56.864.33,56.766,0h-.1c.1.338.2.668.293,1A56.444,56.444,0,0,1,58.971,9.644Z"/>
    <path d="M205.175,200.353c-.375,2-.548,4.072-.72,6.075-.15,1.747-.292,3.442-.563,5.024h.1c.27-1.59.42-3.293.563-5.017.179-2,.351-4.071.727-6.066,1.3-6.96,4.776-11.121,10.071-12.028.344-.06.675-.1,1-.128v-.1a8.331,8.331,0,0,0-1.028.127C210,189.158,206.487,193.343,205.175,200.353Z"/>
    <path d="M175.892,205.887a48.589,48.589,0,0,0-2.444-6.246l-.158-.352c-.593-1.358-1.08-2.8-1.59-4.342-1.042-3.142-2.122-6.389-4.26-8.729a11.446,11.446,0,0,0-8.5-3.262,13.445,13.445,0,0,0-5.459,1.1,15.958,15.958,0,0,0-4.7,3.089,11.16,11.16,0,0,1-4.094,2.093,17.559,17.559,0,0,0-2.925,1.207,9.39,9.39,0,0,0-4.934,6.254,42.325,42.325,0,0,0-.375,8.406c.022,1.8.06,3.667-.022,5.391-.016.3-.038.631-.068.953h.1c.023-.322.045-.645.06-.953.083-1.717.053-3.591.023-5.391a42.678,42.678,0,0,1,.374-8.391,9.325,9.325,0,0,1,4.89-6.187,18.2,18.2,0,0,1,2.91-1.2,11.152,11.152,0,0,0,4.124-2.107,15.927,15.927,0,0,1,4.679-3.074,13.363,13.363,0,0,1,5.414-1.088,11.339,11.339,0,0,1,8.429,3.232c2.122,2.325,3.2,5.557,4.236,8.691.518,1.53,1,2.993,1.6,4.343l.165.359a49.186,49.186,0,0,1,2.429,6.232c.33,1.162.615,2.444.892,3.689.143.637.279,1.252.42,1.845h.106c-.143-.593-.285-1.222-.428-1.867C176.514,208.34,176.23,207.05,175.892,205.887Z"/>
    <path d="M171.3,207.7a22.077,22.077,0,0,0-1.177-5.084,7.678,7.678,0,0,0-1.065-1.74,9.57,9.57,0,0,1-.855-1.283,17.912,17.912,0,0,1-.945-2.189c-.87-2.227-1.762-4.53-4.222-5.181a9.282,9.282,0,0,0-2.339-.225c-1.042,0-2.145.082-3.127.165-.39.022-.75.052-1.087.082a17.928,17.928,0,0,0-9.127,3.262c-3.051,2.22-3.929,5.962-4.326,8.6a14.149,14.149,0,0,0,.345,7.057c.044.1.082.195.12.292h.112c-.045-.113-.1-.218-.142-.33a14.231,14.231,0,0,1-.345-7.012c.4-2.609,1.275-6.336,4.3-8.533a17.97,17.97,0,0,1,9.074-3.247c.337-.015.7-.045,1.087-.075.983-.083,2.085-.173,3.12-.173a9.118,9.118,0,0,1,2.317.24c2.414.638,3.292,2.917,4.147,5.107a20.273,20.273,0,0,0,.952,2.2,10.653,10.653,0,0,0,.863,1.29,8.307,8.307,0,0,1,1.057,1.717,22.26,22.26,0,0,1,1.17,5.069,24.866,24.866,0,0,1,.232,3.742h.1A24.18,24.18,0,0,0,171.3,207.7Z"/>
    <path d="M216.265,195.689h-.007c-4.747.428-7.4,5.594-8.106,15.763h.105c.7-10.1,3.314-15.23,8-15.665a.475.475,0,0,0,.1.015v-.1a.353.353,0,0,0-.091-.015Z"/>
    <path d="M215.073,208.46a7.063,7.063,0,0,0-1.124,2.992h.1a7.136,7.136,0,0,1,1.11-2.925,2.879,2.879,0,0,1,1.2-.434V208a2.9,2.9,0,0,0-1.268.443Z"/>
    <path d="M55.363,197.924c.78-2.542,2.108-4.079,4.192-6.381.323-.368.683-.728,1.065-1.125,1.485-1.538,3.172-3.285,3.547-5.1.75-3.629-1.492-5.759-3.794-7.348a27.544,27.544,0,0,0-3.652-2.01,21.1,21.1,0,0,1-4.62-2.767,15.2,15.2,0,0,1-3.734-5.339,14.17,14.17,0,0,1-.878-3.173,14.071,14.071,0,0,0-.831-3.089c-2.01-4.5-4.635-9.584-8.924-13.145-1.867-1.545-4.222-3.99-4.844-6.9a8.989,8.989,0,0,1,.615-4.927l.074-.24c1.02-3.029,4.065-10.258,10.439-12.081,1.139-.329,2.542-.569,4.019-.832a31.266,31.266,0,0,0,5.182-1.17,19.885,19.885,0,0,0,5.406-3.194l.241-.18c1.581-1.215,3.554-2.722,6.126-2.527a13.055,13.055,0,0,1,6.974,3.2,11.422,11.422,0,0,1,4.1,6.239c.239,1.349.352,2.437.457,3.487.1.907.172,1.762.344,2.707A17.041,17.041,0,0,0,83.6,143.22a27.535,27.535,0,0,0,11.766,4.56,23.675,23.675,0,0,0,13.617-1.89c3.18-1.485,6.585-5.054,9.524-8.294,2.924-3.217,4.469-5.122,4.814-10.228a31.141,31.141,0,0,0-.15-4.769c-.045-.6-.105-1.215-.142-1.83-.023-.45-.06-.9-.105-1.38a18.37,18.37,0,0,1,0-4.807c.592-3.4,2.557-4.911,6.029-4.574a11.993,11.993,0,0,1,10.07,7.641c1.268,3.359.248,6.869-.562,9.7l-.135.465a29.415,29.415,0,0,1-5.578,11.173c-1.373,1.6-2.88,3.1-4.35,4.559-.547.532-1.1,1.088-1.642,1.642-.765.772-1.613,1.485-2.437,2.168a26.627,26.627,0,0,0-3,2.782,24.274,24.274,0,0,0-3.007,4.5,63.494,63.494,0,0,0-5.354,12.433,10.8,10.8,0,0,1-7.259,7.176c-4.6,1.433-11.181,1.268-19.564-.5-4.11-.87-6.561-3.224-7.266-7.011-.8-4.319-3.728-6.472-6.81-8.744-.8-.585-1.612-1.192-2.406-1.83-3.278-2.684-1.643-5.226.082-7.918a14.1,14.1,0,0,0,1.905-3.712c.547-1.98-.158-4.072-.833-6.1a20.635,20.635,0,0,1-.847-3.029c-.8-4.672-1.59-8.362-3.967-9.876-1.275-.81-2.91-.922-5.009-.33-.338.083-.713.2-1.11.315-.81.24-1.733.51-2.49.675a39.7,39.7,0,0,1-4.124.645c-1.537.195-3.119.39-4.867.757a12.714,12.714,0,0,0-6.733,3.682,12.1,12.1,0,0,0-3.18,6.674,6.825,6.825,0,0,0,.1,3.022c.87,2.955,3.554,5.039,5.917,6.876.547.42,1.064.818,1.559,1.23l.082.068c2.288,1.89,5.137,4.244,5.032,7.476a16.591,16.591,0,0,0,1.418,8.083c1.74,3.675,4.191,5.91,8.465,7.695.323.127.638.262.96.39a39.766,39.766,0,0,1,4.387,2.024,11.342,11.342,0,0,1,2.73,2.31c.45.473.915.959,1.447,1.425a16.582,16.582,0,0,1,1.882,2.077c1.612,1.994,3.442,4.252,6.27,3.712a12.7,12.7,0,0,0,4.386-2.325,20.98,20.98,0,0,1,4.222-2.482c2.6-1.02,6.269-1.26,10.153-1.522,2.355-.158,4.8-.323,7.027-.668,5.069-.8,8.5-2.579,10.475-5.437a12.842,12.842,0,0,0,1.35-2.714,16,16,0,0,1,.968-2.13,5.423,5.423,0,0,1,1.169-1.312,7.586,7.586,0,0,0,.713-.69c.405-.45.8-.922,1.177-1.387.42-.51.855-1.043,1.32-1.545.72-.787,1.537-1.507,2.324-2.22.728-.659,1.485-1.342,2.175-2.077a16.052,16.052,0,0,0,1.47-1.882,13.75,13.75,0,0,1,1.695-2.115,28.053,28.053,0,0,0,3.33-3.794,13.265,13.265,0,0,0,1.6-3.592c.113-.382.24-.772.39-1.177a12.164,12.164,0,0,1,1.41-2.565c.322-.487.645-.982.915-1.477a48.482,48.482,0,0,0,2.617-5.594c.2-.518.375-1.042.562-1.552.075-.218.157-.428.233-.645.352-.975.727-1.965,1.095-2.925a61.135,61.135,0,0,0,2.706-8.278,12.339,12.339,0,0,0,.293-5.22c-1.305-6.051-7.169-12.358-12.546-13.513a23.383,23.383,0,0,0-8.818.105c-5.317,1-7.282,3.563-7.011,9.164.059,1.3.187,2.625.292,3.9a38.4,38.4,0,0,1,.2,7.889,13.629,13.629,0,0,1-1,3.584,65.2,65.2,0,0,1-4.792,8.587c-2.189,3.427-5.136,5.924-8.091,6.861-5.6,1.777-13.108.015-17.472-4.109a10.472,10.472,0,0,1-3.225-10.648,6.922,6.922,0,0,1,.353-.946,6.129,6.129,0,0,0,.45-1.252,25.569,25.569,0,0,1,2.347-3.239c1.859-2.3,3.615-4.47,2.94-7.574A11.2,11.2,0,0,0,87.5,114c-.548-1.335-1.11-2.707-.45-3.524a48.792,48.792,0,0,1,4.4-4.522c2.887-2.744,5.88-5.594,6.727-8.264s-.9-5.339-1.65-6.464c-.81-1.222-1.74-2.482-2.714-3.832-.758-1.035-1.545-2.107-2.288-3.172-.615-.892-1.214-1.747-1.807-2.594-1.365-1.965-2.655-3.81-3.982-5.789-.525-.787-1.049-1.635-1.567-2.445-.862-1.365-1.747-2.767-2.64-3.959-1.95-2.61-4.146-3.682-6.554-3.2-2.384.488-4.971,2.332-7.213,4.012-.308.225-.608.45-.908.683-4.184,3.141-8.939,6.7-10.19,10.648-1.058,3.367.9,4.934,2.969,6.592.225.179.45.359.667.547a25.935,25.935,0,0,1,3.285,3.3,39.824,39.824,0,0,1,3.172,4.56c.7,1.109,1.357,2.174,2.017,3.037,2.272,2.977,5.219,4.289,8.061,5.571,2.8,1.245,5.677,2.52,7.859,5.377,0,.105.007.2.007.307a2.814,2.814,0,0,1-.06.878c-2.594,2.8-5.811,3.5-9.838,2.159a23.829,23.829,0,0,1-3.735-1.769c-2.879-1.56-5.856-3.165-9.283-2.123-2.467.743-4.177,2.482-5.834,4.162-1.635,1.665-3.322,3.382-5.767,4.237a20.18,20.18,0,0,1-4.986.8c-5.234.4-7.761,1-9.914,3.727a69.043,69.043,0,0,0-7.4,12.6,15.559,15.559,0,0,0-.8,2.415c-.914,4.589,1.9,8.174,4.455,10.8.615.623,1.3,1.207,1.949,1.762.586.5,1.193,1.02,1.755,1.568a24.66,24.66,0,0,1,2.933,3.809c.456.667.906,1.35,1.394,2,3.517,4.687,4.574,8.774,3.442,13.258-.825,3.218-2.7,7.289-7.011,8.4a37.821,37.821,0,0,1-5.092.81,48.853,48.853,0,0,0-5.107.787c-1.484.337-2.886.773-4.244,1.207a32.874,32.874,0,0,1-5.542,1.388,24.257,24.257,0,0,1-8.916-.885,19.889,19.889,0,0,0-7.1-.81v.1a19.793,19.793,0,0,1,7.079.8,24.3,24.3,0,0,0,8.954.893,32.991,32.991,0,0,0,5.556-1.4c1.35-.427,2.76-.862,4.244-1.2a48.4,48.4,0,0,1,5.084-.78,38.111,38.111,0,0,0,5.107-.817c3.45-.893,5.9-3.817,7.079-8.467,1.148-4.522.082-8.631-3.45-13.355-.48-.645-.937-1.328-1.387-1.987a24.148,24.148,0,0,0-2.962-3.817c-.554-.562-1.162-1.08-1.747-1.575-.653-.562-1.328-1.14-1.942-1.769-2.535-2.595-5.339-6.157-4.424-10.709a14.384,14.384,0,0,1,.794-2.392A68.436,68.436,0,0,1,35.364,123c2.122-2.7,4.649-3.307,9.846-3.7a19.5,19.5,0,0,0,5.017-.8c2.467-.848,4.162-2.58,5.8-4.244,1.717-1.756,3.344-3.413,5.782-4.14,3.4-1.027,6.359.57,9.216,2.115a25.079,25.079,0,0,0,3.742,1.777c4.079,1.357,7.334.645,9.965-2.19l.008-.023a2.716,2.716,0,0,0,.052-.922v-.337l-.015-.015c-2.19-2.88-5.091-4.177-7.9-5.429-2.835-1.26-5.774-2.58-8.023-5.534-.653-.863-1.32-1.92-2.017-3.037a40.19,40.19,0,0,0-3.18-4.567,26.65,26.65,0,0,0-3.292-3.315c-.225-.187-.45-.36-.667-.54-2.048-1.642-3.983-3.194-2.94-6.486,1.245-3.922,5.977-7.461,10.145-10.6.308-.225.616-.458.916-.69,2.227-1.68,4.807-3.509,7.169-3.989s4.536.577,6.464,3.157c.892,1.184,1.769,2.594,2.632,3.952.51.81,1.034,1.649,1.567,2.445,1.319,1.979,2.617,3.831,3.982,5.8.592.84,1.192,1.71,1.814,2.594.735,1.065,1.515,2.138,2.28,3.172.982,1.343,1.912,2.61,2.714,3.825.743,1.124,2.483,3.749,1.643,6.381-.848,2.655-3.832,5.474-6.711,8.219a49.882,49.882,0,0,0-4.41,4.53c-.69.87-.12,2.272.45,3.629a11.244,11.244,0,0,1,.63,1.807c.667,3.059-1.08,5.212-2.925,7.492a25.885,25.885,0,0,0-2.354,3.261l-.008.023a6.047,6.047,0,0,1-.45,1.237,7.5,7.5,0,0,0-.352.953,10.654,10.654,0,0,0,3.262,10.753,19.065,19.065,0,0,0,17.57,4.131c2.969-.952,5.938-3.464,8.128-6.9a64.382,64.382,0,0,0,4.807-8.609,13.75,13.75,0,0,0,1-3.607,39.16,39.16,0,0,0-.195-7.911c-.12-1.275-.24-2.595-.3-3.892-.135-2.835.3-4.822,1.365-6.232,1.087-1.417,2.849-2.324,5.564-2.826a23.008,23.008,0,0,1,8.781-.106c5.347,1.14,11.166,7.417,12.463,13.431a12.282,12.282,0,0,1-.285,5.174,60.03,60.03,0,0,1-2.707,8.256c-.36.967-.735,1.957-1.087,2.932-.083.218-.158.435-.241.653-.172.51-.367,1.034-.562,1.552a46.9,46.9,0,0,1-2.6,5.572c-.269.494-.6.989-.914,1.477a12.31,12.31,0,0,0-1.426,2.587c-.142.405-.269.8-.4,1.177a12.594,12.594,0,0,1-1.575,3.562,27.968,27.968,0,0,1-3.329,3.78,14.713,14.713,0,0,0-1.7,2.121,15.087,15.087,0,0,1-1.454,1.882c-.682.728-1.447,1.418-2.182,2.071-.788.712-1.6,1.439-2.332,2.234-.45.5-.9,1.028-1.32,1.545-.375.457-.765.93-1.17,1.38-.218.24-.465.472-.7.69a5.412,5.412,0,0,0-1.184,1.334,15.056,15.056,0,0,0-.983,2.13,13.32,13.32,0,0,1-1.327,2.707c-1.965,2.834-5.369,4.59-10.416,5.384-2.22.353-4.657.518-7.019.675-3.892.262-7.566.5-10.183,1.53a20.98,20.98,0,0,0-4.245,2.482,12.427,12.427,0,0,1-4.342,2.31c-2.767.532-4.574-1.695-6.179-3.667a17.04,17.04,0,0,0-1.889-2.093,18.318,18.318,0,0,1-1.44-1.424,11.535,11.535,0,0,0-2.752-2.325,39.78,39.78,0,0,0-4.4-2.024c-.323-.128-.637-.263-.96-.39-4.244-1.778-6.689-3.99-8.406-7.641a16.439,16.439,0,0,1-1.41-8.047c.105-3.27-2.767-5.646-5.076-7.559l-.083-.06c-.488-.412-1-.817-1.552-1.237-2.467-1.92-5.024-3.907-5.894-6.824a6.74,6.74,0,0,1-.09-2.977,12.066,12.066,0,0,1,9.83-10.274c1.74-.367,3.33-.554,4.853-.749,1.447-.181,2.819-.36,4.138-.653.758-.165,1.681-.434,2.5-.675.39-.12.764-.232,1.11-.322,2.069-.578,3.682-.465,4.934.33,2.339,1.477,3.127,5.159,3.914,9.8a20.6,20.6,0,0,0,.855,3.052c.668,2.009,1.365,4.087.84,6.029a14.455,14.455,0,0,1-1.9,3.69c-1.748,2.729-3.405,5.309-.06,8.038.794.653,1.611,1.26,2.406,1.837,3.075,2.265,5.977,4.4,6.772,8.691.72,3.825,3.187,6.209,7.349,7.079,8.391,1.777,15,1.942,19.6.5a10.856,10.856,0,0,0,7.327-7.237,63.024,63.024,0,0,1,5.354-12.425,24.659,24.659,0,0,1,2.992-4.477,26.339,26.339,0,0,1,3-2.775c.817-.689,1.665-1.394,2.429-2.167.54-.555,1.1-1.117,1.642-1.649,1.471-1.455,2.993-2.97,4.357-4.568a29.29,29.29,0,0,0,5.594-11.21l.135-.465c.825-2.834,1.838-6.367.563-9.763a12.132,12.132,0,0,0-10.154-7.709c-3.524-.33-5.541,1.192-6.127,4.664a18,18,0,0,0-.006,4.83c.037.48.074.93.1,1.379.045.622.091,1.23.143,1.83a32.152,32.152,0,0,1,.157,4.754c-.352,5.069-1.89,6.974-4.791,10.169-2.94,3.224-6.337,6.794-9.494,8.263a23.564,23.564,0,0,1-13.565,1.89c-10.739-1.86-16.932-7.124-18.432-15.665-.158-.937-.248-1.8-.33-2.7-.113-1.058-.218-2.138-.466-3.5a11.524,11.524,0,0,0-4.124-6.3A13.152,13.152,0,0,0,65,116.3c-2.609-.2-4.6,1.312-6.193,2.541l-.233.18a20.009,20.009,0,0,1-5.384,3.188,33.479,33.479,0,0,1-5.174,1.169c-1.478.255-2.88.5-4.019.826-6.42,1.836-9.487,9.1-10.514,12.14l-.075.247a9.033,9.033,0,0,0-.615,4.98c.622,2.939,3,5.406,4.882,6.958,4.267,3.54,6.9,8.609,8.893,13.115a13.9,13.9,0,0,1,.826,3.053,14.014,14.014,0,0,0,.884,3.2,15.265,15.265,0,0,0,3.757,5.369,20.52,20.52,0,0,0,4.642,2.774,27.339,27.339,0,0,1,3.637,2.01c2.272,1.575,4.5,3.675,3.75,7.252-.368,1.784-2.033,3.516-3.518,5.038-.382.4-.735.773-1.072,1.141-2.093,2.294-3.412,3.839-4.2,6.411a18.312,18.312,0,0,0-.1,7.821c.428,1.988.952,3.9,1.485,5.737h.1c-.533-1.845-1.057-3.757-1.493-5.759A18.333,18.333,0,0,1,55.363,197.924Z"/>
  </g>
</svg>
